<?xml version="1.0" standalone="no"?>
<!DOCTYPE svg PUBLIC "-//W3C//DTD SVG 1.1//EN" "http://www.w3.org/Graphics/SVG/1.1/DTD/svg11.dtd" >
<svg xmlns="http://www.w3.org/2000/svg" xmlns:xlink="http://www.w3.org/1999/xlink" version="1.1">
<metadata></metadata>
<defs>
<font id="alhambraregular" horiz-adv-x="1228" >
<font-face units-per-em="2048" ascent="1638" descent="-410" />
<missing-glyph horiz-adv-x="500" />
<glyph horiz-adv-x="0" />
<glyph unicode="&#xd;" />
<glyph unicode=" " />
<glyph unicode="!" horiz-adv-x="737" d="M338 203q0 86 60.5 145.5t144.5 59.5t144.5 -59.5t60.5 -145.5q0 -84 -60.5 -144.5t-144.5 -60.5t-144.5 60.5t-60.5 144.5zM389 487v949q0 127 90 217t217 90l2 -1256h-309z" />
<glyph unicode="&#x22;" horiz-adv-x="1011" d="M379 1532v649l205 2v-649zM809 1532v649l205 2v-649z" />
<glyph unicode="#" d="M49 541v215h258v184h-258v215h258v258h215v-258h185v258h215v-258h258v-215h-258v-184h258v-215h-258v-256h-215v256h-185v-256h-215v256h-258zM522 756h185v184h-185v-184z" />
<glyph unicode="$" horiz-adv-x="1032" d="M123 633h307q0 -49 34 -83t83 -34t83 34t34 83t-34 83t-83 34q-176 0 -300 123.5t-124 300.5q0 133 75.5 241.5t198.5 155.5v172h308v-176q119 -47 192.5 -154.5t73.5 -238.5h-307q0 49 -34 82.5t-83 33.5t-83 -33.5t-34 -82.5t34 -83t83 -34q176 0 300 -124t124 -300 q0 -131 -74 -238.5t-192 -154.5v-242h-308v238q-123 47 -198.5 155.5t-75.5 241.5z" />
<glyph unicode="%" horiz-adv-x="1177" d="M123 1540q0 84 60.5 144.5t144.5 60.5t144 -60.5t60 -144.5q0 -86 -60 -145.5t-144 -59.5t-144.5 59.5t-60.5 145.5zM154 76l616 1696l289 -107l-617 -1696zM707 203q0 86 60 145.5t144 59.5t144.5 -59.5t60.5 -145.5q0 -84 -60.5 -144.5t-144.5 -60.5t-144 60.5 t-60 144.5z" />
<glyph unicode="&#x26;" horiz-adv-x="1630" d="M338 412q0 150 99.5 264.5t248.5 136.5q-18 47 -18 86v313q0 63 45 108.5t108 45.5h211q127 0 248 43q162 57 162 162v-512h-467v-141q0 -4 12 -25q49 -76 189 -76h266v-1073q0 -125 -88 -216t-215 -91v561h-396q-170 0 -287.5 122t-117.5 292zM645 412q0 -43 31 -74 t74 -31h387v205l-9 2h-378q-43 0 -74 -30.5t-31 -71.5z" />
<glyph unicode="'" horiz-adv-x="581" d="M377 1532v649l205 2v-649z" />
<glyph unicode="(" horiz-adv-x="856" d="M154 817q0 547 188 926h360q-127 -160 -190 -443q-51 -227 -51 -483q0 -387 233 -819h-338q-203 504 -202 819z" />
<glyph unicode=")" horiz-adv-x="733" d="M184 1743h361q188 -379 188 -926q0 -315 -203 -819h-337q233 432 233 819q0 256 -51 483q-63 283 -191 443z" />
<glyph unicode="*" horiz-adv-x="1345" d="M199 836q0 63 46 108t109 45t108.5 -45t45.5 -108t-46 -108.5t-108 -45.5q-66 0 -110.5 45t-44.5 109zM334 408q0 63 45 108t108 45t108.5 -45t45.5 -108t-45 -108.5t-109 -45.5q-63 0 -108 45t-45 109zM565 715q0 63 45 108t109 45q63 0 108 -45t45 -108t-45 -108.5 t-108 -45.5t-108.5 45t-45.5 109zM569 1098q0 78 64 125q39 29 90 28q78 0 123 -63q31 -41 31 -90q0 -78 -64 -125q-41 -29 -90 -29q-78 0 -125 64q-29 39 -29 90zM786 401q0 61 44 107.5t110 46.5q61 0 107.5 -45t46.5 -109q0 -63 -45.5 -108t-108.5 -45t-108.5 44 t-45.5 109zM932 827q0 49 29 91q47 63 124 63q49 0 91 -29q63 -47 63 -125q0 -49 -31 -90q-45 -63 -123 -63q-51 0 -90 28q-63 47 -63 125z" />
<glyph unicode="+" d="M74 715v260h409v411h262v-411h410v-260h-410v-412h-262v412h-409z" />
<glyph unicode="," horiz-adv-x="737" d="M328 188q0 90 58 154t146 64q102 0 165 -75t63 -177q0 -168 -135 -291q-113 -102 -291 -152v193q119 33 168 88q-174 27 -174 196z" />
<glyph unicode="-" horiz-adv-x="745" d="M307 510l178 307h414l-178 -307h-414z" />
<glyph unicode="." horiz-adv-x="737" d="M338 203q0 86 60.5 145.5t144.5 59.5t144.5 -59.5t60.5 -145.5q0 -84 -60.5 -144.5t-144.5 -60.5t-144.5 60.5t-60.5 144.5z" />
<glyph unicode="/" horiz-adv-x="905" d="M154 76l616 1696l289 -107l-617 -1696z" />
<glyph unicode="0" d="M98 647q0 369 88 653q131 426 420 426q299 0 434 -409q90 -274 90 -655q0 -262 -110 -445q-131 -221 -377 -221q-274 0 -418 192q-127 172 -127 459zM406 647q0 -160 40 -237q55 -106 197 -107q102 0 150 139q30 95 30 220q0 209 -37 421q-59 336 -180 336 q-106 0 -164 -350q-37 -233 -36 -422z" />
<glyph unicode="1" d="M461 -4v1745h307v-1444q-4 -125 -93 -213t-214 -88z" />
<glyph unicode="2" d="M166 154q0 39 20 73l555 1018q8 14 9 43q0 57 -41 96t-99 39h-288q-63 2 -108.5 47.5t-45.5 106.5v154h438h8q180 0 310.5 -130.5t130.5 -312.5q0 -106 -37 -176l-438 -805h481l2 -153q0 -63 -46 -108.5t-108 -45.5h-590q-61 0 -107 45t-46 109z" />
<glyph unicode="3" d="M170 152v153h240q160 -2 241 -2l-280 520q-18 35 -19 74q0 41 21 78l268 455h-317q-61 0 -106.5 45t-45.5 108v154h737q63 0 108.5 -46t45.5 -108q0 -43 -21 -78l-360 -612l362 -670q19 -34 19 -73q0 -63 -45 -108.5t-109 -45.5h-587v2q-63 2 -107.5 47t-44.5 107z" />
<glyph unicode="4" d="M133 436q0 41 21 78l655 1145q43 78 133 78q63 0 108.5 -45t45.5 -109v-1587h-308v287h-501q-63 0 -108.5 46t-45.5 107zM551 590h237v416z" />
<glyph unicode="5" d="M96 899v682q0 66 45 111t109 45h883q0 -102 -78 -197q-92 -111 -234 -110h-418v-377h197q217 0 372.5 -155t155.5 -374q0 -217 -155.5 -372.5t-372.5 -155.5h-346q-63 0 -108.5 45t-45.5 109v153h500q90 0 155.5 65.5t65.5 155.5q0 92 -65.5 156.5t-155.5 64.5h-350 q-63 0 -108.5 45.5t-45.5 108.5z" />
<glyph unicode="6" d="M86 528v19q2 12 2 18l-2 875h2q2 125 92 213t215 88v-731q104 47 219 47q219 0 374 -155t155 -374q0 -217 -154.5 -372.5t-374.5 -155.5q-219 0 -373.5 155.5t-154.5 372.5zM393 528q0 -90 64.5 -155.5t156.5 -65.5t157 65.5t65 155.5q0 92 -64.5 157t-157.5 65 q-92 0 -156.5 -64.5t-64.5 -157.5z" />
<glyph unicode="7" d="M111 1737h1007l-405 -1528l6 16q-27 -102 -111 -166.5t-188 -64.5q-39 0 -76 10q96 377 375 1426h-301q-127 0 -217 90t-90 217z" />
<glyph unicode="8" d="M102 510q0 209 148 356q-147 150 -148 359q0 211 150.5 361.5t361.5 150.5t361.5 -150.5t150.5 -361.5q0 -209 -147 -359q147 -147 147 -356q0 -213 -150.5 -362.5t-361.5 -149.5t-361.5 149.5t-150.5 362.5zM410 510q0 -86 60 -145.5t144 -59.5t144.5 59.5t60.5 145.5 q0 84 -60.5 143.5t-144.5 59.5t-144 -59.5t-60 -143.5zM410 1225q0 -84 60 -144.5t144 -60.5t144.5 60.5t60.5 144.5t-60.5 144.5t-144.5 60.5t-144 -60.5t-60 -144.5z" />
<glyph unicode="9" d="M86 1206q0 217 154.5 373t373.5 156t374 -156t155 -373v-18q-2 -12 -2 -19l2 -874h-2q-2 -125 -92.5 -213t-214.5 -88v731q-104 -47 -220 -47q-219 0 -373.5 154.5t-154.5 373.5zM393 1206q0 -92 64.5 -156.5t156.5 -64.5t157 64.5t65 156.5q0 90 -64.5 155.5 t-157.5 65.5q-92 0 -156.5 -65.5t-64.5 -155.5z" />
<glyph unicode=":" horiz-adv-x="737" d="M338 203q0 86 60.5 145.5t144.5 59.5t144.5 -59.5t60.5 -145.5q0 -84 -60.5 -144.5t-144.5 -60.5t-144.5 60.5t-60.5 144.5zM338 817q0 86 60.5 145.5t144.5 59.5t144.5 -59.5t60.5 -145.5q0 -84 -60.5 -144.5t-144.5 -60.5t-144.5 60.5t-60.5 144.5z" />
<glyph unicode=";" horiz-adv-x="737" d="M328 188q0 90 58 154t146 64q102 0 165 -75t63 -177q0 -168 -135 -291q-113 -102 -291 -152v193q119 33 168 88q-174 29 -174 196zM338 817q0 86 60.5 145.5t144.5 59.5t144.5 -59.5t60.5 -145.5q0 -84 -60.5 -144.5t-144.5 -60.5t-144.5 60.5t-60.5 144.5z" />
<glyph unicode="=" d="M104 469v260h1020v-260h-1020zM104 961v260h1020v-260h-1020z" />
<glyph unicode="&#x3e;" d="M98 647q0 373 90 660q131 420 418 419q299 0 434 -407q90 -276 90 -657q0 -260 -110 -445q-131 -221 -377 -221q-274 0 -418 194q-127 172 -127 457zM330 758l186 186v547q-139 -170 -186 -733zM338 471q39 -193 178 -248v424zM725 221q111 61 160 268l-160 158v-426z M725 944l176 -176q-31 535 -176 711v-535z" />
<glyph unicode="?" horiz-adv-x="1251" d="M338 203q0 86 60.5 145.5t144.5 59.5t144.5 -59.5t60.5 -145.5q0 -84 -60.5 -144.5t-144.5 -60.5t-144.5 60.5t-60.5 144.5zM379 485q0 57 2 301q2 190 2 291h395q190 0 226 101l-3 102h-466v512q0 -86 120.5 -145.5t288.5 -59.5h211q63 0 108.5 -45t45.5 -108l2 -277 q0 -178 -187 -291q-160 -96 -346 -96h-90v-285h-309z" />
<glyph unicode="@" horiz-adv-x="2603" d="M154 590q0 475 336.5 812t812.5 337q473 0 809.5 -337t336.5 -812q0 -266 -116 -506l-43 -86h-1483l-2 307q0 238 176 389q143 123 287 123h145q168 0 289 60.5t121 144.5l-2 -717h272q49 137 49 285q0 348 -246.5 595t-592.5 247q-348 0 -595 -247t-247 -595 q0 -213 100.5 -399.5t280.5 -303.5l-154 -268q-252 160 -393 417t-141 554zM1116 305h397v205h-241q-123 -6 -156 -205z" />
<glyph unicode="A" horiz-adv-x="1382" d="M0 -2l178 307h195q25 205 137 348q131 164 324 164h137q127 0 248 43q162 57 161 162l2 -1024h-1382zM684 305h393v103q-2 66 -2 102h-237q-61 0 -107 -76q-35 -57 -47 -129z" />
<glyph unicode="B" horiz-adv-x="1597" d="M0 -2l178 307h240v1131q0 78 61 172q90 135 250 135l-2 -1032q92 106 231 106h482q63 0 108 -45t45 -106l4 -512q0 -63 -46 -109.5t-107 -46.5h-1444zM725 305h563v205h-561zM952 1366q0 63 45 108.5t109 45.5q61 0 107.5 -45.5t46.5 -108.5t-46.5 -108.5t-107.5 -45.5 q-63 0 -108.5 45.5t-45.5 108.5z" />
<glyph unicode="C" horiz-adv-x="1527" d="M369 664q0 157 228 157h3q27 0 72 -2t61 -2q127 0 248 43q162 57 162 162v-512h-467v-104q0 -49 94 -78q72 -23 131 -23h217q168 0 289 60.5t121 144.5v-512h-627q-190 0 -342 90q-178 102 -188 279q-2 20 -2 297zM713 1366q0 63 45 108.5t108 45.5t108.5 -45.5 t45.5 -108.5t-45 -108.5t-109 -45.5q-63 0 -108 45.5t-45 108.5z" />
<glyph unicode="D" horiz-adv-x="1636" d="M0 -2l178 307h281v361q0 61 45 106t108 45h512q123 -12 203 -104l2 1030q119 0 213 -94t94 -213v-1284q0 -61 -45 -107.5t-108 -46.5h-1483zM764 305h565v205h-565v-205zM797 1366q0 63 45 108.5t108 45.5q61 0 107.5 -45.5t46.5 -108.5t-46 -108.5t-108 -45.5 q-63 0 -108 45.5t-45 108.5z" />
<glyph unicode="E" horiz-adv-x="1619" d="M0 -2l178 307h373q-16 47 -16 82l2 277q0 63 45 108t108 45h271q111 0 215 47q133 59 133 156l2 -510h-469v-104q0 -49 96 -78q70 -23 129 -23h553v-307h-1016q-53 0 -91 -37t-38 -90q0 -51 38 -87t91 -36h719v-158q0 -63 -45 -108t-109 -45h-565q-180 0 -308 128 t-128 306q0 66 20 127h-188z" />
<glyph unicode="F" horiz-adv-x="1570" d="M0 -2l178 307h350q-18 61 -18 125l2 236q0 155 226 155h3q25 0 68 -2t59 -2q127 0 246 43q164 57 164 162v-512h-461v-80q0 -45 31 -83t76 -44h192h455v-303h-787q-193 0 -192 -129l-2 -766h-154q-63 0 -108 45t-45 109h2v610q0 68 18 129h-303zM817 1366q0 63 45 108.5 t109 45.5q63 0 108 -45.5t45 -108.5t-45 -108.5t-108 -45.5t-108.5 45.5t-45.5 108.5z" />
<glyph unicode="G" horiz-adv-x="1316" d="M184 -152q0 250 154 289q0 -186 86 -309q98 -141 276 -141q66 0 154 126t154 126v354h-306q-106 0 -182 76.5t-76 183.5q0 109 76 186.5t182 77.5h205q127 0 246 43q164 58 164 162l-2 -1083q0 -250 -170 -402q-162 -145 -414 -145q-223 0 -377 114q-170 127 -170 342z M637 553q0 -27 19.5 -47.5t45.5 -20.5v-2h306v142h-306q-27 0 -46 -21.5t-19 -50.5zM995 1368q0 63 45 108.5t109 45.5q63 0 108.5 -45.5t45.5 -108.5t-45.5 -108.5t-108.5 -45.5t-108.5 45.5t-45.5 108.5zM995 1761q0 63 45 108.5t109 45.5q63 0 108.5 -45.5t45.5 -108.5 q0 -61 -45.5 -107t-108.5 -46t-108.5 46t-45.5 107z" />
<glyph unicode="H" horiz-adv-x="1593" d="M0 -2l178 307h242v1131h-2q0 125 91 216t216 91l2 -1030q92 104 231 104h482q63 0 108 -45t45 -108v-666h-307v512h-559l-2 -512h-725zM1143 1366q0 63 45 108.5t108 45.5t108.5 -45.5t45.5 -108.5t-45 -108.5t-109 -45.5q-63 0 -108 45.5t-45 108.5z" />
<glyph unicode="I" horiz-adv-x="972" d="M0 -2l178 307h197v666q127 0 217 -90t90 -217v-445v-12q0 -80 49 -141q55 -72 143 -72q129 0 191 160q43 115 43 270q141 -41 141 -289q0 -186 -110.5 -313t-294.5 -127q-147 0 -260 82t-166 221h-418zM375 1366q0 63 46 108.5t107 45.5q63 0 108.5 -45.5t45.5 -108.5 t-45 -108.5t-109 -45.5q-61 0 -107 45.5t-46 108.5z" />
<glyph unicode="J" horiz-adv-x="1210" d="M338 -90v395h307v-395q0 -53 38 -90t91 -37t90 37t37 90v1194q-2 268 -2 332q0 -8 0 -6q0 125 92 216t219 91l-2 -1827q0 -180 -127 -307t-307 -127t-308 127t-128 307z" />
<glyph unicode="K" horiz-adv-x="1413" d="M0 -2l178 307h242l2 1438q127 0 217 -91t90 -216h-2l2 -908q57 88 115 174q72 102 139 152q88 63 195 64q82 0 161 -31v-328h-2q-59 90 -159 90q-37 0 -76 -49q-4 -4 -55 -80l215 -309q43 -61 84 -61q100 0 159 92l2 -2v-328q-78 -31 -161 -31q-106 0 -197 68 q-72 51 -145 155q-59 88 -119 177l-193 -283h-692z" />
<glyph unicode="L" horiz-adv-x="790" d="M0 -2l178 307h303l2 1137q0 127 90.5 217t217.5 90v-237v1v-348q-2 -1014 -3 -1014v1q0 -57 -38.5 -101.5t-96.5 -50.5v-2h-653z" />
<glyph unicode="M" horiz-adv-x="1961" d="M0 -2l178 307h199v445l307 176v-238q92 129 250 129h235q57 0 101.5 -39t50.5 -98q92 137 256 137h231q63 0 108.5 -45t45.5 -108v-666h-307v512h-332v-512h-449l3 307h139v205h-332v-510zM514 -410q0 63 45 108.5t109 45.5q61 0 107 -45.5t46 -108.5t-46 -108t-107 -45 q-63 0 -108.5 45t-45.5 108zM952 -410q0 63 45 108.5t109 45.5q63 0 108.5 -45.5t45.5 -108.5t-45.5 -108t-108.5 -45t-108.5 45t-45.5 108z" />
<glyph unicode="N" horiz-adv-x="1368" d="M0 -2l178 307h168v445l307 176v-242q92 133 254 133h307q63 0 108.5 -45t45.5 -108v-666h-309v512h-406v-512h-653z" />
<glyph unicode="O" horiz-adv-x="1355" d="M0 -2l178 307h230q55 246 342 375q78 37 125 118t47 171q0 -88 46 -170t122 -117q360 -166 360 -502q0 -217 -154.5 -371.5t-373.5 -154.5q-168 0 -303.5 96t-192.5 248h-426zM700 180q0 -90 65.5 -154.5t156.5 -64.5q92 0 156.5 64.5t64.5 154.5q0 92 -64.5 156.5 t-156.5 64.5q-90 0 -156 -64.5t-66 -156.5z" />
<glyph unicode="P" horiz-adv-x="1325" d="M0 -2l178 307h234l-2 819q0 -104 161 -163q121 -41 248 -41h338q106 0 183 -78t77 -187t-76.5 -185.5t-185.5 -76.5h-436v-395h-719zM514 1520q0 63 45 108t109 45q63 0 108 -45t45 -108t-45 -108.5t-108 -45.5t-108.5 45t-45.5 109zM717 586l440 -2q29 0 50.5 20 t21.5 51q0 29 -21.5 50.5t-50.5 21.5h-440v-141zM743 1827q0 63 45.5 108t108.5 45t108.5 -45t45.5 -108t-45 -108.5t-109 -45.5q-63 0 -108.5 45t-45.5 109zM975 1520q0 63 45 108t108 45t108.5 -45t45.5 -108t-45 -108.5t-109 -45.5q-63 0 -108 45t-45 109z" />
<glyph unicode="Q" horiz-adv-x="1744" d="M0 -2l178 307h926v88h-438q-109 0 -186 77t-77 185q0 106 77 184.5t184 78.5l337 2q127 0 248 43q162 57 162 161v-929q0 -80 56.5 -140.5t136.5 -60.5q127 0 188 160q45 115 45 270q139 -41 139 -289q0 -186 -110.5 -313t-292.5 -127q-150 0 -261.5 82t-166.5 221h-1145 zM592 655q0 -31 21.5 -52t50.5 -21v4h440v141h-440q-29 0 -50.5 -21.5t-21.5 -50.5zM612 1520q0 63 45 108t109 45q63 0 108.5 -45t45.5 -108t-45.5 -108.5t-108.5 -45.5t-108.5 45t-45.5 109zM842 1827q0 63 45 108t108 45t108.5 -45t45.5 -108t-45 -108.5t-109 -45.5 q-63 0 -108 45t-45 109zM1073 1520q0 63 45 108t109 45q63 0 108 -45t45 -108t-45 -108.5t-108 -45.5t-108.5 45t-45.5 109z" />
<glyph unicode="R" horiz-adv-x="1275" d="M0 -2l178 307h121l-2 717q0 -102 145 -160q111 -45 234 -45h143q94 0 187 -49q195 -106 254 -373q16 -68 16 -88l-2 -307h-303q-4 33 -4 76q0 186 -15 260q-33 168 -149 174h-49h-152v-510z" />
<glyph unicode="S" horiz-adv-x="1576" d="M0 -2l178 307h1043v207h-822v219l1362 666v-90l-712 -396q-37 -23 -37 -55q0 -39 43 -39h139q150 0 240 -90t90 -240v-489h-1524z" />
<glyph unicode="T" horiz-adv-x="1144" d="M0 -2l178 307h189l2 1444q127 0 216 -89t89 -218h-2v-318h268l178 -307h-446l-4 -899q0 -53 37.5 -90t91.5 -37q53 0 91 37t38 90v387l307 -307v-80q0 -180 -128 -307t-308 -127q-178 0 -304 127t-126 307v80h-367z" />
<glyph unicode="U" horiz-adv-x="1388" d="M0 -2l178 307h201v213q2 123 92 211t213 88l2 -510h395v203q0 127 90.5 217t217.5 90v-667q0 -63 -45.5 -108.5t-108.5 -45.5z" />
<glyph unicode="V" horiz-adv-x="1374" d="M0 -4l178 309h602l-205 291q-39 55 -81 55q-98 0 -158 -90h-2v328q78 31 160 31q182 0 307 -177l266 -376v143q0 127 90 217t217 90v-665q0 -63 -45 -108.5t-108 -45.5h-91v-191l-133 191zM467 1366q0 63 45 108.5t109 45.5q63 0 108 -45.5t45 -108.5t-45 -108.5 t-108 -45.5t-108.5 45.5t-45.5 108.5z" />
<glyph unicode="W" horiz-adv-x="1648" d="M0 -4l178 309h225v819q152 0 310 -299l-2 -520h166l2 666q127 0 217 -90t90 -217l-2 2v-361h157v512q127 0 217.5 -90t90.5 -217v-356q0 -66 -45 -111t-109 -45zM682 1212q0 63 45 108.5t109 45.5q63 0 108 -45.5t45 -108.5t-45 -108t-108 -45t-108.5 45t-45.5 108z M911 1520q0 63 45 108t109 45q63 0 108.5 -45t45.5 -108t-45.5 -108.5t-108.5 -45.5t-108.5 45t-45.5 109zM1143 1212q0 63 45 108.5t108 45.5t108.5 -45.5t45.5 -108.5t-45 -108t-109 -45q-63 0 -108 45t-45 108z" />
<glyph unicode="X" horiz-adv-x="1253" d="M-20 0l178 305h407l-119 170q-41 55 -81 55q-63 0 -117 -45v297q57 16 117 17q180 0 305 -178l151 -211l150 211q127 178 307 178q57 0 115 -17v-297q-53 45 -115 45q-43 0 -82 -55l1 2l-212 -301l178 -250v-465l-342 484l-344 -484v465l53 74h-550z" />
<glyph unicode="Y" horiz-adv-x="1419" d="M0 0l178 305h234q-1 107 -1 160t1 53q2 125 92 212t215 87v-512h393v211q2 125 92 213t215 88q0 12 4 -481q1 -74 1 -141q0 -201 -5 -334q-6 -178 -131 -305t-305 -127t-307 127t-127 307h307q0 -53 37 -90t90 -37t91 37t38 90v137h-1112z" />
<glyph unicode="Z" horiz-adv-x="1646" d="M94 1307v90l1354 -666l2 -203l-612 -223h962l-176 -305l-987 -2q-150 0 -225.5 67.5t-75.5 180.5q0 193 151 252l512 194q48 18 48 50q0 24 -39 46z" />
<glyph unicode="[" horiz-adv-x="921" d="M154 -2v1745h614q0 -127 -90 -216t-217 -89v-1133q127 0 217 -89t90 -216zM154 1743z" />
<glyph unicode="\" horiz-adv-x="2945" d="M102 526l29 248q23 193 86 342q51 115 154.5 256t208.5 281q129 84 219 137l-19 -39l117 61q27 -4 76 25q35 23 67 43q41 14 123 45l56 2l63 31q434 0 578 -37q63 -16 208 -82q78 -35 295 -217t252 -246q29 -66 90 -198q70 -147 93 -211q43 -117 43 -228l-11 -37l13 -75 q0 -297 -111 -594l-22 -15l-5 -59l-135 -221q-59 -35 -102 -80q-59 -59 -72 -70q-82 -59 -244 -172l-14 2q-389 -203 -694 -202q-37 0 -207 36q-162 37 -170 35l-76 43l-20 -2q-12 10 -33 25l-156 78q-94 49 -145 94q-25 20 -138.5 142t-123.5 138q-23 33 -53 103 q-23 53 -48 106l-22 21q-150 301 -150 491zM274 1014l15 -10l20 4h31l-29 -11l-8 -12l6 -6l68 4l16 18l-26 11l6 20l-51 4l-33 -4zM319 922l5 -70l84 -141l18 -2l12 -23l19 2l8 -18l20 2q18 -23 66.5 -50.5t73.5 -23.5l2 12q25 -18 98 -32q59 -10 102 -11l74 4l14 23v20 l-32 -20h-45q-147 0 -252 72q-61 43 -133 139q-61 84 -91 94l-14 23h-29zM330 942q117 -8 262 -45q156 -41 248 -92l-27 -43q-23 -14 -72 -43v-17l25 -8l12 -6l53 6l46 39l-7 -47l37 -2l43 59l-4 37l27 2l2 -16l139 -39l39 21l92 10q35 0 98 -15q49 -10 99 -20l-182 10 l-86 -4l-35 -29l-4 -49l18 -41l14 4l-2 80l111 8q168 0 188 -12l-6 -10l29 -35l18 6l29 -69q23 -14 65 -23l74 -59l109 -35l-2 22q-33 43 -125 97q-98 55 -137 96q252 -39 337 -115l29 -65l19 22l-27 53q-84 90 -215 105q119 6 190 -45l29 -31l23 4l-66 72 q-33 12 -308.5 64.5t-295.5 52.5l-66 -6l-32 -15l-5 17l17 28l41 21l18 61l-8 80l19 -2l14 12l-31 31l12 20l31 -22l19 6l-19 33l10 8l35 -22l17 2l-7 18l-20 25l14 10l43 -25l15 10l-37 43l37 5l22 -19l17 -2l-7 29l-12 16l16 27h23l29 -39l16 2q-2 31 -16 61 q49 -43 82 -65l4 16l-19 23l15 -2l2 16l-23 41l23 -16l32 12l17 -23l-29 -18l39 -33l18 4l-22 35l27 -2l-9 37h25q25 -35 53 -41l10 31l-26 32l18 3l37 -33l41 -15l12 7l-41 28l11 13l45 -31h22l2 14l-39 29l27 14l14 -10l13 14l28 -2l11 23l-41 2l-9 18l23 27v16l-45 -6 l-8 21l-35 -5l26 41l-2 17l-86 -58l-20 -4l29 41l-7 21l-86 -60q27 37 25 68l55 10l23 -12l6 14l29 -4l10 8l8 -8l19 2v19l20 41l-23 20l-20 -2l-12 16l51 27l12 25l-26 16l-2 18l-37 -24l-29 -4v30l-14 -2l-37 -45l-13 -2l-14 19l-29 -23l-102 -8l-8 8l-105 -12l-12 6 l-12 -2l-14 -8h-33q-27 -16 -113 -19l-24 15q-23 -14 -72 -15l-43 21l-25 -2q-90 20 -141 20q-31 0 -97.5 19.5t-101.5 19.5q-6 0 -47 -4q-29 -4 -47 0l10 -20l-18 -43l24 -13l-12 -20l23 -51l24 2v-8l17 -2l4 -35l-33 -31l12 -12l31 28l21 -12q-6 -20 -7 -20l2 -27l25 -8 l-27 -21q6 -14 0 -32l47 8l19 -15l-62 -43l21 -8l35 15l28 -23h31l-2 -37q12 -14 44 -29.5t42 -29.5l-20 -29l24 -4l25 12l2 -24l20 -4l9 -19v-18l32 -29v-49l8 -8l9 -80l-9 -15l7 -30l-29 -19l16 -10l-34 -18l-173 92l31 4q82 -31 146 -49l18 16l-18 14l22 23l-6 23 l-63 -17l-44 8l56 33l-29 23l-39 -31l-51 -16l-59 22l-19 59q-2 55 15 86l-3 33l-18 -4l-8 -12h-41l-25 -62l19 -71l30 -31l-143 27v-9q49 -43 156 -51l41 -35q-104 31 -207 60q-119 33 -215 26zM559 1346l4 -54l39 -41q45 29 53 49l-6 15l-35 -23v45l-16 27zM592 1208 l2 -16l41 18l35 43q-31 -8 -60 -6l-4 -28zM627 768l28 -96l39 -19l17 17l63 -49h17l-5 18q-12 39 -100 98q-4 59 -33 101l-24 -7zM643 1163l16 -14l35 2q47 2 113 -47q84 -61 104 -70l11 2q-33 51 -106 91t-134 44zM674 371l2 -17h12l29 52l16 2l-41 -121l8 -27l17 16l-2 15 q18 35 63 92v-23q-61 -80 -61 -139l10 -49l18 12q-12 74 58 154l4 -43l-23 -19l23 -108q25 -41 49 -62v-12l8 -6l2 -10q-61 -31 -80 -74l-2 -14h17l22 26l2 15h19l-21 -33l15 -12l28 34l-8 15v12l14 8l7 13l16 10q29 -6 90 -6h76q43 47 74 112l-2 19l24 43q-14 27 -18 78 q-6 72 -9 82l13 53q0 86 -37 151q-35 39 -70 60l-14 -4l-10 14l-47 -35l-21 -86l-10 -12l-45 -19l-17 9l-16 -2l-12 -11l16 -8q45 -4 64 8l6 -30l-15 -15l-2 13l-39 -7l-59 21h-43l-8 2l-37 -8q-2 -6 -49 -68v-8h10l17 10l6 -12zM715 -70h16l23 19l6 16l-8 2l-2 15l-17 -5 l-16 -30zM719 1386l18 9l11 -19l-13 -12h-14zM725 1688l39 -17h24l-14 -6v-10q49 -23 135 -41q115 -25 140 -33l84 6l26 -10q66 2 195 14q59 20 190 41l8 10l68 5l49 26l-2 27l41 12l-2 19l-33 16l-4 10l35 23l-31 4l-2 18l31 31l-70 -14l-14 8l-12 41l-50 -21l-20 17v24 l-47 -8l-6 18l-31 -20l-27 14v21l-39 -6l-22 16l-6 27l-33 -35q-129 -4 -291 -68q-135 -61 -272 -123l2 -8h-12zM756 -70q6 -20 10 -34h10l10 30l-6 31l-10 -2zM756 1004l6 -23l22 -18l27 14l-16 14l-2 31l51 10v10l-17 13l-22 2l-25 -4l-20 -19zM788 535l17 -17l20 6v15 l-24 12l-13 -8v-8zM795 1704l65 12q117 -31 277 -30q12 0 42.5 -4.5t47.5 -4.5l82 -20l-58 -12q-43 29 -84 24l-39 -10q-43 10 -77 0q-106 31 -256 45zM807 -104l16 2l15 41l-4 18l-15 -2q-14 -35 -12 -59zM838 356q35 47 43 76l22 2q-2 -27 -45 -78h-20zM838 434l18 21 l6 -13l-12 -20zM840 -104l16 2l35 36l2 33l-21 4q-35 -68 -32 -75zM858 1661q96 -27 168 -27q25 0 45 4l41 -16l33 2l104 -12q-66 -10 -65 -10q-141 0 -326 59zM868 -408l13 2l8 11l-6 20l-13 -8zM870 -12l19 -6q18 4 45 20v21l-21 10l-16 -4q-23 -20 -27 -41zM872 -483h19 l6 12v8l-10 8l-8 -8zM877 -121l12 -24h10q0 18 6 36q6 -14 19 -26l18 12l4 19l-12 16l12 6l2 8l19 -8h10l-10 -35l4 -14l18 12q8 21 6 68l-16 33l-27 -2l-6 -9l-16 13l-19 -17l-8 -22l-12 -11zM891 -311v-11l12 -4l19 7l24 20l17 -16l16 20l2 19l-6 24l-19 -10l-4 -17 l-34 -8zM903 -367l8 -2q16 11 39 31l-14 8l-6 -2q-23 -20 -27 -35zM903 -522v-17l12 9l-6 14zM907 -401l6 -5l21 9l4 16l-12 12zM918 -442l32 16q10 25 21 31h6q16 18 41 57l12 -2l-18 -25l6 -18h8l16 10v-18l-24 -17l-23 -2l-4 -14l-22 -6l-33 -49l10 -15l45 25l15 2l6 27 l16 4l-2 12l39 21l10 -11h19q40 25 75 127v29l-14 10l-47 2l-18 -12l-27 6q-12 -16 -35 -24l-10 14l-21 -12l-26 -50q2 -27 2 -26q0 -4 -4 -18.5t-2 -22.5l-17 -6q-31 -33 -32 -45zM924 -238l8 -4l10 -2l14 21l-2 12h-18zM940 -598l21 -16l-3 51l-16 8zM946 713 q14 -8 68.5 -11.5t87.5 -25.5l16 20q-10 16 -57 27q-39 10 -64 10l-49 -12zM965 1350q83 -11 194 -7l-41 -26l-12 18l-47 -4l-17 8l-38 -4zM989 -186l10 -4l9 16l-4 18h14l4 -18l14 -6q23 37 23 55l10 -14q-10 -27 -12 -54l6 -20l8 -8l25 31q14 40 18 81l-6 23l-8 2l-15 29 q-16 -4 -43 -31l-12 10q-47 -63 -41 -110zM993 -221v-12l19 -11l41 4l-4 11l-31 10zM999 -512q10 -33 7 -98h10l16 65l-6 45l8 19l-14 8zM1006 -313l12 24l10 2l-6 -24zM1014 1804q102 66 274 54q-82 -29 -274 -54zM1036 -649l15 -19l8 45l-6 58l-13 -10q0 -25 -4 -74z M1055 -489l6 -15l12 4q2 -43 -4 -57l6 -14v-27l12 -8q10 43 9 55l16 2q2 -39 -4 -67l6 -17l19 27l8 -12l18 18q2 39 17 57l14 6l-6 -65q2 -20 24 -68q16 20 17 64l-11 49l25 29l10 -70l15 10v-10l-4 -12v-62q25 41 34 66l-6 26l10 33l17 2l2 -39q-4 -10 -8 -30v-52l12 -2 l12 50l25 -5l8 -16l-18 -35h-11l4 72l13 24l28 3l-6 -35l2 -45l13 2q12 33 8 59q6 15 20 31l-10 53h-12l-2 -59l-19 20l-14 -4l-12 4l-2 39l10 4l2 -31l18 7l2 67l-10 33l-20 4l6 -63h-25l-12 -23l-16 -2l-35 14l-2 23l12 10l-4 16l-27 21l-14 -4l-4 -25l-10 2v13l-27 -9 l-4 -12l-37 -22l-31 -2l-2 -11l-20 -4l-8 12l14 17l35 4l6 8l26 25q14 0 29 4l8 16l6 2l15 -6l26 21q6 23 7 69l-15 2q-6 -12 -8 -24l-8 -2l-8 12v51l-15 33l-34 -62l-3 -45h-20l-18 -43q-37 -33 -62 -45zM1063 -289l2 8l27 11l49 -2l2 -7l-25 -63l-20 -20l-13 14l25 29 l2 22l-10 -2l-29 -14zM1083 -657l13 6l2 -17l-15 -4v4v11zM1114 1745q88 2 117 -10l-10 -9zM1120 -160l2 -45l17 -10l22 12l8 53l11 -12l10 -53l16 -10l27 51l4 39l-14 65h-6l-11 -14l-4 4l-4 33l-12 6l-12 -49l-33 65l-11 -18q-4 -18 -4 -74q0 -33 -6 -43zM1133 -655 l14 -29l20 18l-14 13zM1169 -377l13 4l2 -24l-15 -6v26zM1174 569q51 -100 116 -141q98 -8 193 -57l26 2q49 -23 125 -33l-8 -14h-10l-14 -33l-46 22l-28 2l-12 19l-103 24l-22 -4l6 -34l49 -68l4 -39l25 -6l4 -14l-15 -11l-34 2l6 -16l26 -18l43 6l8 -6l-24 -25 q-20 6 -21 6l-43 -2l19 -22v-13l22 -10l-18 -33l2 -16l33 12l-2 -20l8 -21l20 31l15 -2l-11 -45l9 -17l28 37l2 -41l9 -10l18 14l14 48l19 -15l4 -20l16 -2l8 16l-2 8l17 -12l14 -37l19 6l-2 33l43 -43l12 14l-4 21q25 -6 55 -8l-4 18l-35 27q25 12 68 2l-19 24l19 8v19 l-13 8l15 6v15l-13 4v20l-34 10l10 7l-8 14l-11 4l2 10l-4 10l-12 5l14 10l-30 10l-31 -4q8 23 10 43l21 10l8 23l-8 26q-37 -37 -37 -63l-29 -19l-4 13l25 32l10 7l6 22l-8 14l-29 -32l2 -11h-12l-4 13l18 12l-2 14l-22 2l-2 23q133 -20 223 -25l29 17l26 33q-37 6 -65 18 l43 25l6 24l-13 37l-16 12l-14 -24v-13l-41 -24q-27 0 -76 -3t-70 -3l-84 22l-38 -6q-6 25 -13 41l10 29l-45 30l-14 88q-37 37 -72 54l-67 6l-62 -23l11 -28l36 4l19 -17l-29 -8l4 -14l45 -21l48 -2l16 -57l29 -20l-13 -11h-22l10 -14l-37 4q-18 16 -57 43q-10 25 -53 47 q-16 53 -46 113l-30 -4l6 -31l-37 35l-16 -2l-4 -15q61 -102 108 -165l72 -41l-51 8q-27 16 -62 55q-45 49 -55 59zM1198 -514l16 12l9 -18l-19 -10zM1219 1425l102 15l-18 -21l-39 -2zM1225 369q2 -53 18 -140l25 -26l22 10l10 53v51l-34 60l-37 16q-4 -25 -4 -24z M1243 -279l12 -26h23l-4 20l-17 19zM1249 -147l17 -7q-10 -61 -11 -61l5 -21q12 2 32 15q0 16 21 41h18l-6 -21l4 -18l17 4q18 33 22 76l6 4l-20 20v25h-21l-12 14l-4 -37l-17 -2q0 57 -24 101l-12 2q-6 -45 -15 -135zM1262 1800l69 4l92 -32q-86 -8 -161 28zM1280 -707 l20 -8l3 15l-19 12zM1292 -340v-20l17 4v18zM1325 -291l12 -4l19 10l-27 15zM1327 -326l12 -41l21 -6l4 25l-27 24zM1341 1374l9 35l43 -4l14 25l12 -9l27 2l14 15l17 -11l22 3l8 14q23 0 52 -8l18 2l8 10l10 -12l-41 -52h-28v15l-17 4l-71 -57l-8 43l-35 -43h-27l8 18z M1362 -709l16 -16l15 8l-11 19zM1368 815q35 -18 88 -49l12 8l23 2l-12 25l-76 49l-14 -25zM1380 -201l13 -6l4 -35l12 -6q35 41 23 113l18 41l-2 24l-16 -4q-25 -53 -52 -127zM1427 -594l7 -16q-12 -27 -4 -92q4 3 20 75l-6 19l4 63l-4 60l-14 -7zM1452 -182l6 -27l25 12 l6 43v45h-14zM1477 -551l4 -61l14 -13l12 70l-2 33l-16 2zM1483 850l10 -16h29l41 30l-23 -30l16 -9l-10 -22l-20 -2l-8 -8q27 -33 79 -43q47 -6 95 -11q94 -23 170 -57l43 37l-4 37l14 2l-8 20l-27 -2l-27 -24q-61 -8 -61 -9l-31 5q-51 27 -69 57l-4 20l14 49l-6 23l67 55 l39 2l58 -32l26 2l29 -19l18 2l4 11l-65 55l-14 -4q-45 35 -66 35l2 12q-70 -6 -157 -43t-136 -84zM1516 -145v-37l22 8l-12 31zM1520 -541l8 -88l12 -12l12 20l-14 84zM1532 -471l8 -18l27 -7l-25 31zM1552 -537l11 -57l8 21l-2 30l-8 8zM1554 793l19 6l31 -17l-17 -2z M1575 -145l10 -27l14 2l-10 31zM1587 -547q4 -23 4 -69l19 -21l6 27l-6 45l-13 20zM1599 -496l5 -20l10 -10l12 12l-6 18h-21zM1620 283l16 12v-12l9 -15h-17zM1622 395q68 -16 125 -12l59 -33q-4 2 -94 17q-53 10 -90 28zM1669 -526v-33l6 -27l23 -22l16 -8q-8 61 -33 92 l-10 -4zM1690 1030l6 -4q38 8 108 39l-10 10q-55 -4 -76 -2l-18 -12l8 -17zM1720 1087l27 -2l2 21l-25 -2zM1722 856l11 -41l20 -24l19 -7l26 17l-8 10l-23 6l-14 21l16 32l46 -4l16 6l-35 33l-27 -2q-18 -6 -47 -47zM1763 1092l39 -2l82 8l19 18l-29 8q-20 2 -56 -9t-55 -9 v-14zM1823 1061l16 -6l2 -8h74l24 16l-41 18l-59 -8zM1907 672l6 -47l20 -17h11l8 19h8l4 22l31 -14v-8l-15 -9l2 -20l-8 -6l-14 6l-6 -6q0 -27 -4 -53l14 -11l-10 -16l-15 8l-22 -26l4 -13l25 -6l2 -26h-9v-11l19 -8l2 -22l-4 -11l2 -26h14l13 -25l30 2l31 33l33 14l8 35 l14 10l15 2l2 -4l22 13l23 20l-13 14q-10 -2 -32 -24l-4 12l22 35l35 22v15l35 22l-2 13l-29 2l2 32h-20l-27 -22l-2 4l43 53l2 47l-6 4q-27 -20 -43 -75h-17l-10 -23l-22 -14l2 12l8 6l4 31l-4 20h-12l-23 -49v-28l-8 -7l-21 45q10 49 11 50l-2 55l-11 18l-10 -14l-6 -25 q-6 35 -21 48l-6 -9l-10 -63l-10 35l-14 14l-5 -12v-70l-24 35zM2062 358l37 23l12 18q-20 -14 -36 -18l-9 -6z" />
<glyph unicode="]" horiz-adv-x="798" d="M184 0q0 127 90.5 216t217.5 89v1133q-127 0 -217.5 89t-90.5 216h615v-1745zM799 1743z" />
<glyph unicode="^" horiz-adv-x="376" d="M-16 -2l178 307h416l-179 -307h-415z" />
<glyph unicode="_" horiz-adv-x="202" d="M-16 305h417v-307h-415z" />
<glyph unicode="`" horiz-adv-x="1376" d="M627 1511v160l571 -315v-154z" />
<glyph unicode="a" horiz-adv-x="1376" d="M0 -2l178 307h195q25 205 137 348q131 164 324 164h137q127 0 248 43q162 57 161 162v-717h334v-307h-1714zM684 305h393v103q-2 66 -2 102h-237q-61 0 -107 -76q-35 -57 -47 -129z" />
<glyph unicode="b" horiz-adv-x="1548" d="M0 -2l178 307h240v-2v891v246v-4q0 127 92 217t219 90l-2 -1032q92 106 231 106h482q63 0 108 -45t45 -106v-361h293l-2 -307h-1884zM725 305h563v205h-561zM952 1366q0 63 45 108.5t109 45.5q61 0 107.5 -45.5t46.5 -108.5t-46.5 -108.5t-107.5 -45.5q-63 0 -108.5 45.5 t-45.5 108.5z" />
<glyph unicode="c" horiz-adv-x="1189" d="M369 664q0 157 228 157h3q27 0 72 -2t61 -2q127 0 248 43q162 57 162 162v-512h-467v-104q0 -49 96 -78q70 -23 129 -23h627v-307h-627q-188 0 -342 90q-178 102 -188 279q-2 20 -2 297zM713 1366q0 63 45 108.5t108 45.5t108.5 -45.5t45.5 -108.5t-45 -108.5t-109 -45.5 q-63 0 -108 45.5t-45 108.5z" />
<glyph unicode="d" horiz-adv-x="1585" d="M0 -2l178 307h281v361q0 61 45 106t108 45h512q123 -12 203 -104l2 1030q119 0 212 -94.5t93 -212.5l2 -1131h287l-2 -307h-1921zM764 305h565v205h-565v-205zM797 1366q0 63 45 108.5t108 45.5q61 0 107.5 -45.5t46.5 -108.5t-46 -108.5t-108 -45.5q-63 0 -108 45.5 t-45 108.5z" />
<glyph unicode="e" horiz-adv-x="1282" d="M0 -2l178 307h373q-16 47 -16 82l2 277q0 63 45 108t108 45h271q111 0 215 47q133 59 133 156l2 -510h-469v-104q0 -49 96 -78q70 -23 129 -23h553v-307h-1016q-53 0 -91 -37t-38 -90q0 -51 38 -87t91 -36h719v-158q0 -63 -45 -108t-109 -45h-565q-180 0 -308 128 t-128 306q0 66 20 127h-188z" />
<glyph unicode="f" horiz-adv-x="1232" d="M0 -2l178 307h350q-18 61 -18 125l2 236q0 155 226 155h3q25 0 68 -2t59 -2q127 0 246 43q164 57 164 162v-512h-461v-80q0 -45 31 -83t76 -44h192h455v-303h-787q-193 0 -192 -129l-2 -766h-154q-63 0 -108 45t-45 109h2v610q0 68 18 129h-303zM817 1366q0 63 45 108.5 t109 45.5q63 0 108 -45.5t45 -108.5t-45 -108.5t-108 -45.5t-108.5 45.5t-45.5 108.5z" />
<glyph unicode="g" horiz-adv-x="1312" d="M184 -152q0 250 154 289q0 -186 86 -309q98 -141 276 -141q66 0 154 126t154 126v354h-306q-106 0 -182 76.5t-76 183.5q0 109 76 186.5t182 77.5h205q127 0 246 43q164 57 164 162v-717h334l-2 -307h-334v-59q0 -250 -170 -402q-162 -145 -414 -145q-223 0 -377 114 q-170 127 -170 342zM637 553q0 -27 19.5 -47.5t45.5 -20.5v-2h306v142h-306q-27 0 -46 -21.5t-19 -50.5zM995 1368q0 63 45 108.5t109 45.5q63 0 108.5 -45.5t45.5 -108.5t-45.5 -108.5t-108.5 -45.5t-108.5 45.5t-45.5 108.5zM995 1761q0 63 45 108.5t109 45.5 q63 0 108.5 -45.5t45.5 -108.5q0 -61 -45.5 -107t-108.5 -46t-108.5 46t-45.5 107z" />
<glyph unicode="h" horiz-adv-x="1589" d="M0 -2l178 307h242v1131h-2q0 125 91 216t216 91l2 -1030q92 104 231 104h482q63 0 108 -45t45 -108v-359h334l-2 -307h-639v512h-559l-2 -512h-725zM1143 1366q0 63 45 108.5t108 45.5t108.5 -45.5t45.5 -108.5t-45 -108.5t-109 -45.5q-63 0 -108 45.5t-45 108.5z" />
<glyph unicode="i" horiz-adv-x="972" d="M0 -2l178 307h197v666q127 0 217 -90t90 -217v-445v-12q0 -80 49 -141q55 -72 143 -72q129 0 191 160q43 115 43 270q141 -41 141 -289q0 -186 -110.5 -313t-294.5 -127q-147 0 -260 82t-166 221h-418zM375 1366q0 63 46 108.5t107 45.5q63 0 108.5 -45.5t45.5 -108.5 t-45 -108.5t-109 -45.5q-61 0 -107 45.5t-46 108.5z" />
<glyph unicode="j" horiz-adv-x="1171" d="M338 -90v395h307v-395q0 -53 38 -90t91 -37t90 37t37 90l-2 1520v14v-14q0 125 92 216t219 91l-2 -1432h301l-2 -307h-299v-88q0 -180 -127 -307t-307 -127t-308 127t-128 307zM899 1430v14v-14z" />
<glyph unicode="k" horiz-adv-x="1298" d="M0 -2l178 307h242l2 1438q127 0 217 -91t90 -216h-2l2 -908q57 88 115 174q72 102 139 152q88 63 195 64q82 0 161 -31v-328h-2q-59 90 -159 90q-37 0 -78 -51q-2 -2 -56 -82l197 -211h395v-307h-462q-66 0 -113 49l-195 209l-174 -258h-692z" />
<glyph unicode="l" horiz-adv-x="794" d="M0 -2l178 307h299l2 1137q0 127 93.5 217t220.5 90v1l2 -345v4v-1104h335v-307h-1130z" />
<glyph unicode="m" horiz-adv-x="1959" d="M0 -2l178 307h199v445l307 176v-238q92 129 250 129h235q57 0 101.5 -39t50.5 -98q92 137 256 137h231q63 0 108.5 -45t45.5 -108v-359h334v-307h-641v512h-332v-512h-449l3 307h139v205h-332v-510zM514 -410q0 63 45 108.5t109 45.5q61 0 107 -45.5t46 -108.5t-46 -108 t-107 -45q-63 0 -108.5 45t-45.5 108zM952 -410q0 63 45 108.5t109 45.5q63 0 108.5 -45.5t45.5 -108.5t-45.5 -108t-108.5 -45t-108.5 45t-45.5 108z" />
<glyph unicode="n" horiz-adv-x="1374" d="M0 -2l178 307h168v445l307 176v-242q92 133 254 133h307q63 0 108.5 -45t45.5 -108v-359h344l-2 -307h-651v512h-406v-512h-653z" />
<glyph unicode="o" horiz-adv-x="1386" d="M0 -2l178 307h230q55 246 342 375q78 37 125 118t47 171q0 -88 46 -170t122 -117q293 -135 348 -377h286v-307h-307q-57 -152 -192 -248t-303 -96t-303.5 96t-192.5 248h-426zM700 180q0 -90 65.5 -154.5t156.5 -64.5q92 0 156.5 64.5t64.5 154.5q0 92 -64.5 156.5 t-156.5 64.5q-90 0 -156 -64.5t-66 -156.5z" />
<glyph unicode="p" horiz-adv-x="1310" d="M0 -2l178 307h234l-2 819q0 -104 161 -163q121 -41 248 -41h338q106 0 183 -78t77 -187t-76.5 -185.5t-185.5 -76.5h-436v-88h928l-2 -307h-1645zM514 1520q0 63 45 108t109 45q63 0 108 -45t45 -108t-45 -108.5t-108 -45.5t-108.5 45t-45.5 109zM717 586l440 -2 q29 0 50.5 20t21.5 51q0 29 -21.5 50.5t-50.5 21.5h-440v-141zM743 1827q0 63 45.5 108t108.5 45t108.5 -45t45.5 -108t-45 -108.5t-109 -45.5q-63 0 -108.5 45t-45.5 109zM975 1520q0 63 45 108t108 45t108.5 -45t45.5 -108t-45 -108.5t-109 -45.5q-63 0 -108 45t-45 109z " />
<glyph unicode="q" horiz-adv-x="1744" d="M0 -2l178 307h926v88h-438q-109 0 -186 77t-77 185q0 106 77 184.5t184 78.5l337 2q127 0 248 43q162 57 162 161v-929q0 -80 56.5 -140.5t136.5 -60.5q127 0 188 160q45 115 45 270q139 -41 139 -289q0 -186 -110.5 -313t-292.5 -127q-150 0 -261.5 82t-166.5 221h-1145 zM592 655q0 -31 21.5 -52t50.5 -21v4h440v141h-440q-29 0 -50.5 -21.5t-21.5 -50.5zM612 1520q0 63 45 108t109 45q63 0 108.5 -45t45.5 -108t-45.5 -108.5t-108.5 -45.5t-108.5 45t-45.5 109zM842 1827q0 63 45 108t108 45t108.5 -45t45.5 -108t-45 -108.5t-109 -45.5 q-63 0 -108 45t-45 109zM1073 1520q0 63 45 108t109 45q63 0 108 -45t45 -108t-45 -108.5t-108 -45.5t-108.5 45t-45.5 109z" />
<glyph unicode="r" horiz-adv-x="1359" d="M0 -2l178 307h305l-2 717q0 -104 144 -162q104 -43 225 -43h31q193 0 321 -164q111 -143 137 -348h359l-2 -307h-652v96q2 70 3 94q0 231 -109 301q-35 20 -61 21h-91v-510z" />
<glyph unicode="s" horiz-adv-x="1576" d="M0 -2l178 307h1043v207h-822v219l1362 666v-90l-712 -396q-37 -23 -37 -55q0 -39 43 -39h139q150 0 240 -90t90 -240v-489h-1524z" />
<glyph unicode="t" horiz-adv-x="1206" d="M0 -2l178 307h189l2 1444q127 0 216 -89t89 -218h-2v-318h268l178 -307h-446v-899q0 -53 35.5 -90t89.5 -37q53 0 91 37t38 90v387h479v-307h-172v-80q0 -180 -128 -307t-308 -127t-305 127t-125 307v80h-367z" />
<glyph unicode="u" horiz-adv-x="1396" d="M354 307v203v6q0 123 88 211q90 90 220 90v-510h395v209q0 125 91 213t216 88q0 -299 2 -512h367l-2 -307l-1069 2q-127 0 -216.5 90t-91.5 217z" />
<glyph unicode="v" horiz-adv-x="1374" d="M0 -4l178 309h602l-205 291q-39 55 -81 55q-98 0 -158 -90h-2v328q78 31 160 31q182 0 307 -177l266 -376v143q0 127 90 217t217 90v-665q0 -63 -45 -108.5t-108 -45.5h-91v-191l-133 191zM467 1366q0 63 45 108.5t109 45.5q63 0 108 -45.5t45 -108.5t-45 -108.5 t-108 -45.5t-108.5 45.5t-45.5 108.5z" />
<glyph unicode="w" horiz-adv-x="1648" d="M0 -4l178 309h225v819q152 0 310 -299l-2 -520h166l2 666q127 0 217 -90t90 -217l-2 2v-361h157v512q127 0 217.5 -90t90.5 -217v-356q0 -66 -45 -111t-109 -45zM682 1212q0 63 45 108.5t109 45.5q63 0 108 -45.5t45 -108.5t-45 -108t-108 -45t-108.5 45t-45.5 108z M911 1520q0 63 45 108t109 45q63 0 108.5 -45t45.5 -108t-45.5 -108.5t-108.5 -45.5t-108.5 45t-45.5 109zM1143 1212q0 63 45 108.5t108 45.5t108.5 -45.5t45.5 -108.5t-45 -108t-109 -45q-63 0 -108 45t-45 108z" />
<glyph unicode="x" horiz-adv-x="1253" d="M-20 0l178 305h407l-119 170q-43 55 -81 55q-63 0 -117 -45v297q57 16 117 17q180 0 305 -178l151 -211l150 211q127 178 307 178q57 0 115 -17v-297q-53 45 -115 45q-43 0 -82 -55q-6 -8 -119 -170h512v-307h-477l51 -72v-465l-342 484l-344 -484v465l53 74h-550z" />
<glyph unicode="y" horiz-adv-x="1419" d="M0 0l178 305h234q-1 107 -1 160t1 53q2 125 92 212t215 87v-512h393v211q2 125 92 213t215 88q0 12 4 -481q1 -74 1 -141q0 -201 -5 -334q-6 -178 -131 -305t-305 -127t-307 127t-127 307h307q0 -53 37 -90t90 -37t91 37t38 90v137h-1112z" />
<glyph unicode="z" horiz-adv-x="1462" d="M94 1307v90l1354 -666l2 -203l-612 -223h962l-176 -305l-987 -2q-150 0 -225.5 67.5t-75.5 180.5q0 193 151 252l512 194q48 18 48 50q0 24 -39 46z" />
<glyph unicode="{" horiz-adv-x="446" d="M-285 -137q4 -160 123 -258q127 -106 350 -107q244 0 400 150q147 139 166 358h-305q-10 -205 -240 -213q-139 0 -215 51q-115 80 -115 289q0 39 4 80q-164 -45 -168 -350z" />
<glyph unicode="|" horiz-adv-x="544" d="M225 -2l4 1442q0 127 94.5 218t223.5 91l-2 -1751h-320z" />
<glyph unicode="}" horiz-adv-x="1058" d="M-307 6h305q-8 -205 219 -213q154 0 236 64q129 98 129 356q139 -39 139 -289q0 -32 -2 -61q-18 -160 -146 -258q-137 -106 -360 -107q-244 0 -385 150q-135 139 -135 358z" />
<glyph unicode="~" horiz-adv-x="376" d="M-16 -2l178 307h416l-179 -307h-415z" />
<glyph unicode="&#xa0;" />
<glyph unicode="&#xa1;" horiz-adv-x="610" d="M537 1098q0 86 60 145.5t146 59.5q84 0 144.5 -59.5t60.5 -145.5q0 -84 -60.5 -144.5t-144.5 -60.5q-86 0 -146 60.5t-60 144.5zM586 813l311 2l-2 -948h2q0 -127 -90 -217t-217 -90z" />
<glyph unicode="&#xa2;" horiz-adv-x="1032" d="M123 633v541q0 135 78 243.5t200 153.5v172h308v-178q117 -47 189.5 -153.5t72.5 -237.5h-307q0 49 -34 82.5t-83 33.5t-83 -33.5t-34 -82.5v-541q0 -49 34 -83t83 -34t83 34t34 83h307q0 -131 -73 -237.5t-189 -153.5v-244h-308v238q-123 45 -200.5 153.5t-77.5 243.5z " />
<glyph unicode="&#xa3;" horiz-adv-x="1329" d="M123 670l178 307h76v156q-2 117 -2 155q0 205 112 318q131 133 320 133h459q0 -127 -90.5 -217t-217.5 -90q-168 0 -133 2q-80 -4 -120 -45q-23 -23 -23 -99l2 -313h227l-176 -307h-53v-365h586v-153q0 -63 -46 -108.5t-108 -45.5h-940v307h201v365h-252z" />
<glyph unicode="&#xa4;" horiz-adv-x="1382" d="M0 670l178 307h86v301q0 217 155.5 372.5t373.5 155.5q219 0 373.5 -155.5t154.5 -372.5h-307q0 90 -64.5 155.5t-156.5 65.5q-90 0 -156 -65.5t-66 -155.5v-301h279l-176 -307h-103v-142q0 -90 65.5 -155.5t156.5 -65.5q92 0 156.5 65.5t64.5 155.5h307 q0 -217 -154.5 -372.5t-373.5 -155.5q-217 0 -373 155.5t-156 372.5v142h-264z" />
<glyph unicode="&#xa5;" horiz-adv-x="1310" d="M123 1743h330l233 -604l234 604h329l-411 -1065h223l-176 -307h-45v-373h-308v373h-260l179 307h84z" />
<glyph unicode="&#xa8;" horiz-adv-x="1376" d="M545 1450q0 63 44 108.5t109 45.5q63 0 108.5 -45.5t45.5 -108.5t-45 -108.5t-109 -45.5q-66 0 -109.5 45t-43.5 109zM983 1450q0 63 45 108.5t109 45.5q63 0 108 -45.5t45 -108.5t-45 -108.5t-108 -45.5t-108.5 45t-45.5 109z" />
<glyph unicode="&#xa9;" horiz-adv-x="2603" d="M154 590q0 475 336.5 812t812.5 337q473 0 809.5 -337t336.5 -812q0 -266 -116 -506l-43 -86h-897q-188 0 -342 90q-178 104 -189 279q-2 20 -2 297q0 158 232 157q27 0 71.5 -2t61.5 -2q127 0 248 43q162 57 161 162v-512h-467v-104q0 -49 97 -78q70 -23 129 -23h700 q49 137 49 285q0 348 -246.5 595t-592.5 247q-348 0 -595 -247t-247 -595q0 -213 100.5 -399.5t280.5 -303.5l-154 -268q-252 160 -393 417t-141 554z" />
<glyph unicode="&#xab;" horiz-adv-x="1337" d="M154 406l372 372h242l-369 -372l369 -373h-242zM615 406l372 372h242l-369 -372l369 -373h-242z" />
<glyph unicode="&#xad;" horiz-adv-x="745" d="M307 510l178 307h414l-178 -307h-414z" />
<glyph unicode="&#xae;" horiz-adv-x="4931" d="M135 797h84l19 -385l26 385h76l27 -383l18 383h84l-66 -570h-67l-33 361l-35 -361h-65zM221 1505q0 119 39 228q53 145 148 145q96 0 147 -145q39 -109 39 -228t-39 -225q-51 -147 -147 -147q-94 0 -148 147q-39 106 -39 225zM258 1505q0 -94 31 -182q43 -117 119 -117 q78 0 118 117q31 88 31 182q0 96 -31 183q-41 119 -118 118q-76 0 -119 -118q-31 -86 -31 -183zM317 1503q0 209 95 209q59 0 80 -119l-39 -18q-12 68 -43 67q-51 0 -52 -137q0 -137 48 -137q37 0 47 82l39 -27q-18 -125 -82 -125q-92 0 -93 205zM489 797h84l19 -385l26 385 h76l27 -383l18 383h84l-65 -570h-68l-33 361l-34 -361h-68zM635 1151q94 336 94 543q0 84 -49 84q-25 0 -43 -23v94q43 37 82 37q113 0 112 -176q0 -141 -71 -463h78v-96h-203zM666 45h98v-328h51v328h96v-731h-96v309h-51v-309h-98v731zM842 797h86l16 -385l27 385h76 l28 -383l19 383h84l-68 -570h-68l-30 361l-35 -361h-68zM872 1516q0 371 132 370q131 0 131 -377q0 -362 -125 -362q-137 0 -138 369zM965 45h98v-633h57v-98h-155v731zM975 1530q0 -233 31 -273q26 43 26 248q0 223 -28 271q-29 -37 -29 -246zM1143 -406q0 287 104 287 q107 0 107 -287t-103 -286q-109 0 -108 286zM1169 1516q0 371 131 370q132 0 132 -377q0 -362 -125 -362q-137 0 -138 369zM1194 281q0 53 55 53q54 0 54 -53t-54 -54q-55 0 -55 54zM1229 -397q0 -178 20 -197q21 22 21 186q0 178 -21 193q-20 -16 -20 -182zM1272 1530 q0 -233 31 -273q26 43 26 248q0 223 -29 271q-29 -37 -28 -246zM1333 233v732h84v-197q27 35 60 35q70 0 69 -107v-463h-84v457q0 29 -22 27q-12 -4 -23 -17v-467h-84zM1391 45h84v-197q27 35 59 35q68 0 68 -106v-463h-82v457q0 29 -23 28q-12 -6 -22 -18v-467h-84v731z M1446 1217q70 84 117 208q-109 82 -109 230q0 76 25 141q35 88 100 88q70 0 104 -92q27 -66 27 -150q0 -121 -60.5 -270t-144.5 -235zM1552 1669q0 -92 41 -135q17 41 17 119q0 88 -31 119q-27 -18 -27 -103zM1593 479v68q0 254 172 254h39q0 -2 -3 -98.5t-3 -165.5 q0 -216 29 -236l-49 -74q-25 6 -45 49q-23 -49 -58 -49q-82 0 -82 252zM1632 -178l54 61q25 -6 43 -41q31 41 63 41q70 0 70 -100v-469h-86v461q0 25 -21 24q-12 0 -20 -14v-471h-84v463q0 33 -19 45zM1677 449q0 -139 29 -138l14 4v381q-43 -14 -43 -143v-104zM1837 739 l51 62q45 -16 51 -80q61 80 82 80v-105q-29 -6 -55.5 -35.5t-26.5 -58.5v-369h-84v461q0 29 -18 45zM1890 1151v731h99v-328h51v328h98v-731h-98v309h-51v-309h-99zM1903 -342q0 223 106 223q105 0 105 -164q0 -150 -121 -180q0 -47 16 -86q23 -51 66 -51q10 0 34 10v-94 q-18 -6 -45 -6q-162 0 -161 282v66zM1989 -297v-74q41 14 41 86q0 53 -19 78q-23 -37 -22 -90zM2042 514q0 287 104 287q107 0 107 -287t-103 -287q-109 0 -108 287zM2128 522q0 -178 20 -198q21 24 21 188q0 176 -21 190q-20 -14 -20 -180zM2132 -180l51 61q47 -16 53 -80 q59 80 80 80v-104q-29 -6 -54.5 -36t-25.5 -58v-369h-84v461q0 29 -20 45zM2187 1397v69q0 252 172 252h41l-3 -97t-3 -167q0 -212 27 -235l-47 -72q-27 6 -45 49q-25 -49 -60 -49q-82 0 -82 250zM2273 1368q0 -139 29 -139l14 6v379q-43 -12 -43 -144v-102zM2296 303v662 h84v-617q-1 -47 26 -59l-65 -62q-45 14 -45 76zM2353 -360q0 113 31 213q43 143 129 143q76 0 110 -109q27 -76 27 -172q0 -70 -16 -143q-25 -104 -68 -104q-39 0 -35 86q-18 -86 -53 -86q-51 0 -51 147q0 61 14 129q23 94 64 94q33 0 41 -71l6 57h33q-27 -238 -27 -252 q0 -31 14 -37q43 2 43 184q0 213 -100 213q-70 0 -105 -118q-25 -82 -24 -179q0 -92 22 -167q33 -106 101 -107q53 0 100 86l12 -51q-51 -100 -116 -101q-84 0 -125 138q-27 92 -27 207zM2431 440v101q0 260 129 260v164h82v-596q0 -52 20 -70l-49 -74q-33 10 -45 51 q-29 -51 -55 -51q-82 0 -82 215zM2431 1657l51 61q47 -16 53 -80q59 80 80 80v-104q-29 -4 -54.5 -35t-25.5 -57v-371h-84v463q0 27 -20 43zM2466 -393q0 -61 24 -74q18 0 33 82q10 63 10 106q0 47 -20 56q-23 0 -37 -74q-10 -55 -10 -96zM2517 453q0 -143 27 -144l16 8v381 q-43 -12 -43 -129v-116zM2636 1432q0 287 104 286q107 1 107 -286q0 -285 -101 -285q-111 0 -110 285zM2679 242v84q12 -16 33 -17q41 0 41 43q0 55 -37 159.5t-37 160.5q0 129 86 129q25 0 57 -19v-77q-16 14 -31 14q-35 0 -34 -43q0 -53 37.5 -159t37.5 -161 q0 -129 -98 -129q-31 0 -55 15zM2697 -373q0 254 172 254h39q0 -2 -3 -98t-3 -166q0 -212 29 -235l-49 -72q-25 6 -46 47q-23 -47 -57 -47q-82 0 -82 250v67zM2722 1442q0 -178 20 -199q21 23 21 189q0 176 -21 190q-20 -14 -20 -180zM2781 -367v-102q0 -139 29 -139l16 6 v379q-45 -14 -45 -144zM2853 725v72h37q0 176 108 172h15v-80q-31 -4 -39 -35q-2 -6 -2 -57h41v-72h-41v-449q0 -150 -117 -149v90q35 0 35 74v434h-37zM2892 1221v661h82v-616q-1 -46 26 -58l-63 -61q-45 14 -45 74zM2945 -406q0 287 104 287q107 0 107 -287t-102 -286 q-109 0 -109 286zM3025 1358v102q0 260 129 260v162h84v-594q0 -51 20 -69l-49 -74q-35 8 -45 51q-29 -51 -55 -51q-84 0 -84 213zM3031 -397q0 -178 21 -197q20 22 20 186q0 178 -20 193q-20 -16 -21 -182zM3037 514q0 287 105 287q106 0 106 -287t-102 -287 q-109 0 -109 287zM3111 1370q0 -143 29 -143q8 0 14 8v383q-43 -14 -43 -131v-117zM3123 522q0 -178 21 -198q20 24 20 188q0 176 -20 190q-20 -14 -21 -180zM3199 45h84v-616q0 -48 27 -58l-66 -61q-45 12 -45 74v661zM3269 739l53 62q25 -4 43 -39q31 39 63 39 q68 0 68 -99v-469h-84v461q0 23 -21 23q-12 0 -20 -12v-472h-84v463q0 31 -18 43zM3322 -639q0 55 53 55q55 0 55 -55q0 -53 -55 -53q-53 0 -53 53zM3396 1151v731h98v-633h59v-98h-157zM3451 -356q0 240 119 239q18 0 39 -8v-86q-16 8 -21 8q-51 0 -51 -153v-84 q0 -166 45 -166q20 0 29 12v-84q-23 -16 -43 -16q-117 0 -117 256v82zM3529 725v25q29 29 102 137h25v-90h43v-72h-43v-387q0 -29 24 -29q4 0 19 6v-71q-25 -16 -45 -17q-82 0 -82 99v399h-43zM3574 1432q0 287 104 286q107 1 107 -286q0 -285 -103 -285q-109 0 -108 285z M3633 -406q0 287 105 287q106 0 106 -287t-102 -286q-109 0 -109 286zM3660 1442q0 -178 20 -199q21 23 21 189q0 176 -21 190q-20 -14 -20 -180zM3719 -397q0 -178 21 -197q20 22 20 186q0 178 -20 193q-20 -16 -21 -182zM3721 242v84q14 -16 33 -17q43 0 43 43 q0 55 -38 159.5t-38 160.5q0 129 88 129q25 0 56 -19v-77q-16 14 -31 14q-33 0 -33 -43q0 -53 37 -159t37 -161q0 -129 -96 -129q-33 0 -58 15zM3822 1151v731h84v-194q27 33 59 32q70 0 70 -106v-463h-84v459q0 27 -21 26q-14 -6 -24 -16v-469h-84zM3875 -178l47 61 q35 -12 45 -43q29 43 66 43q39 0 59 -41q33 41 67 41q66 0 66 -104v-465h-84v455q0 29 -20 28q-12 -6 -23 -18v-465h-84v455q0 29 -20 28q-14 -6 -23 -18v-465h-84v475q0 23 -12 33zM3891 281q0 53 55 53q54 0 54 -53t-54 -54q-55 0 -55 54zM4022 481v82q0 238 119 238 q18 0 39 -6v-86q-16 8 -21 8q-53 0 -53 -154v-86q0 -164 45 -164q20 0 29 11v-82q-20 -16 -41 -17q-117 0 -117 256zM4063 1659l53 61q25 -6 43 -39q31 39 66 39q68 0 68 -98v-471h-84v461q0 25 -23 24q-10 0 -20 -14v-471h-84v463q0 33 -19 45zM4205 514q0 287 104 287 q106 0 106 -287t-102 -287q-109 0 -108 287zM4291 522q0 -178 20 -198q18 24 18 188q0 176 -18 190q-20 -14 -20 -180zM4334 1430v65q0 223 106 223q105 0 105 -164q0 -150 -121 -180q0 -47 18 -86q23 -51 64 -51q10 0 34 12v-96q-18 -6 -45 -6q-162 0 -161 283zM4420 1468 q41 14 41 84q0 55 -19 80q-23 -39 -22 -92v-72zM4444 741l49 60q35 -10 45 -41q29 41 66 41t59 -39q33 39 66 39q68 0 67 -103v-465h-84v453q0 31 -20 31q-14 -6 -23 -19v-465h-84v455q0 29 -20 29q-14 -6 -23 -19v-465h-84v476q0 23 -14 32zM4565 1657l49 61q47 -16 53 -80 q61 80 80 80v-104q-29 -4 -54.5 -35t-25.5 -57v-371h-84v463q0 27 -18 43z" />
<glyph unicode="&#xb0;" horiz-adv-x="970" d="M164 1374q0 150 105.5 254.5t252.5 104.5t253 -104.5t106 -254.5q0 -147 -105.5 -252.5t-253.5 -105.5q-147 0 -252.5 105.5t-105.5 252.5zM381 1374q0 -57 42 -98t99 -41t99.5 41t42.5 98q0 59 -42 100.5t-100 41.5q-57 0 -99 -41t-42 -101z" />
<glyph unicode="&#xb4;" horiz-adv-x="1376" d="M627 1202v154l571 315v-160z" />
<glyph unicode="&#xb7;" horiz-adv-x="446" d="M307 666q0 63 45 108t109 45q63 0 108 -45t45 -108t-45 -108.5t-108 -45.5t-108.5 45t-45.5 109z" />
<glyph unicode="&#xb8;" horiz-adv-x="1189" d="M739 174l308 2l-3 -340q-4 -125 -92 -213t-213 -88v639z" />
<glyph unicode="&#xbb;" horiz-adv-x="1689" d="M614 33l369 373l-369 372h242l373 -372l-373 -373h-242zM1075 33l369 373l-369 372h242l373 -372l-373 -373h-242z" />
<glyph unicode="&#xbf;" horiz-adv-x="1175" d="M168 147q0 178 186 291q160 96 346 97h91l2 284h307q0 -57 -2 -301q-2 -190 -2 -291h-396q-190 0 -223 -98v-102h467v-512q0 84 -121 144t-288 60h-211q-63 0 -108.5 45.5t-45.5 108.5zM731 1102q0 84 60.5 144.5t144.5 60.5t144.5 -60.5t60.5 -144.5t-60.5 -144.5 t-144.5 -60.5t-144.5 60.5t-60.5 144.5z" />
<glyph unicode="&#xc0;" horiz-adv-x="1382" d="M0 -2l178 307h195q25 205 137 348q131 164 324 164h137q127 0 248 43q162 57 161 162l2 -1024h-1382zM627 1511v160l571 -315v-154zM684 305h393v103q-2 66 -2 102h-237q-61 0 -107 -76q-35 -57 -47 -129z" />
<glyph unicode="&#xc1;" horiz-adv-x="1382" d="M0 -2l178 307h195q25 205 137 348q131 164 324 164h137q127 0 248 43q162 57 161 162l2 -1024h-1382zM627 1202v154l571 315v-160zM684 305h393v103q-2 66 -2 102h-237q-61 0 -107 -76q-35 -57 -47 -129z" />
<glyph unicode="&#xc2;" horiz-adv-x="1382" d="M0 -2l178 307h195q25 205 137 348q131 164 324 164h137q127 0 248 43q162 57 161 162l2 -1024h-1382zM633 1229v186l287 287l284 -287v-186l-284 282zM684 305h393v103q-2 66 -2 102h-237q-61 0 -107 -76q-35 -57 -47 -129z" />
<glyph unicode="&#xc3;" horiz-adv-x="1382" d="M0 -2l178 307h195q25 205 137 348q131 164 324 164h137q127 0 248 43q162 57 161 162l2 -1024h-1382zM532 1313v160q150 68 242 73q45 4 139.5 -40t135.5 -42q57 4 264 84v-153q-223 -94 -264 -95q-23 0 -68 19q-80 31 -86 33q-96 33 -147 26q-123 -12 -216 -65zM684 305 h393v103q-2 66 -2 102h-237q-61 0 -107 -76q-35 -57 -47 -129z" />
<glyph unicode="&#xc4;" horiz-adv-x="1382" d="M0 -2l178 307h195q25 205 137 348q131 164 324 164h137q127 0 248 43q162 57 161 162l2 -1024h-1382zM545 1450q0 63 44 108.5t109 45.5q63 0 108.5 -45.5t45.5 -108.5t-45 -108.5t-109 -45.5q-66 0 -109.5 45t-43.5 109zM684 305h393v103q-2 66 -2 102h-237 q-61 0 -107 -76q-35 -57 -47 -129zM983 1450q0 63 45 108.5t109 45.5q63 0 108 -45.5t45 -108.5t-45 -108.5t-108 -45.5t-108.5 45t-45.5 109z" />
<glyph unicode="&#xc5;" horiz-adv-x="1382" d="M0 -2l178 307h195q25 205 137 348q131 164 324 164h137q127 0 248 43q162 57 161 162l2 -1024h-1382zM684 305h393v103q-2 66 -2 102h-237q-61 0 -107 -76q-35 -57 -47 -129zM713 1427q0 88 63.5 151.5t151.5 63.5q90 0 152.5 -63.5t62.5 -151.5q0 -90 -62.5 -152.5 t-152.5 -62.5q-88 0 -151.5 62.5t-63.5 152.5zM844 1427q0 -35 24.5 -59.5t59.5 -24.5t60.5 24.5t25.5 59.5t-25.5 59.5t-60.5 24.5t-59.5 -24.5t-24.5 -59.5z" />
<glyph unicode="&#xc6;" horiz-adv-x="1859" d="M0 -2l178 307h256q25 205 137 348q131 164 324 164h145q127 0 248 43q162 57 162 162v-205h467v-307h-467v-104q0 -10 16 -31q55 -70 209 -70h523v-307h-986q-53 0 -91 -37t-38 -90q0 -51 38 -89t91 -38h717v-154q0 -63 -45 -108t-108 -45h-564q-180 0 -308 128t-128 306 q0 66 19 127h-795zM745 305h396l4 205h-240q-66 0 -112 -72q-35 -57 -48 -133z" />
<glyph unicode="&#xc7;" horiz-adv-x="1189" d="M369 664q0 158 231 157q27 0 72 -2t61 -2q127 0 248 43q162 57 162 162v-512h-467v-104q0 -49 94 -78q72 -23 131 -23h217q168 0 289 60.5t121 144.5v-512h-627q-190 0 -342 90q-178 102 -188 279q-2 20 -2 297zM713 1366q0 63 45 108.5t108 45.5t108.5 -45.5 t45.5 -108.5t-45 -108.5t-109 -45.5q-63 0 -108 45.5t-45 108.5zM739 174l308 2l-3 -340q-4 -125 -92 -213t-213 -88v639z" />
<glyph unicode="&#xc8;" horiz-adv-x="1282" d="M0 -2l178 307h373q-16 47 -16 82l2 277q0 63 45 108t108 45h271q111 0 215 47q133 59 133 156l2 -510h-469v-104q0 -49 96 -78q70 -23 129 -23h553v-307h-1016q-53 0 -91 -37t-38 -90q0 -51 38 -87t91 -36h719v-158q0 -63 -45 -108t-109 -45h-565q-180 0 -308 128 t-128 306q0 66 20 127h-188zM627 1511v160l571 -315v-154z" />
<glyph unicode="&#xc9;" horiz-adv-x="1282" d="M0 -2l178 307h373q-16 47 -16 82l2 277q0 63 45 108t108 45h271q111 0 215 47q133 59 133 156l2 -510h-469v-104q0 -49 96 -78q70 -23 129 -23h553v-307h-1016q-53 0 -91 -37t-38 -90q0 -51 38 -87t91 -36h719v-158q0 -63 -45 -108t-109 -45h-565q-180 0 -308 128 t-128 306q0 66 20 127h-188zM627 1202v154l571 315v-160z" />
<glyph unicode="&#xca;" horiz-adv-x="1282" d="M0 -2l178 307h373q-16 47 -16 82l2 277q0 63 45 108t108 45h271q111 0 215 47q133 59 133 156l2 -510h-469v-104q0 -49 96 -78q70 -23 129 -23h553v-307h-1016q-53 0 -91 -37t-38 -90q0 -51 38 -87t91 -36h719v-158q0 -63 -45 -108t-109 -45h-565q-180 0 -308 128 t-128 306q0 66 20 127h-188zM633 1229v186l287 287l284 -287v-186l-284 282z" />
<glyph unicode="&#xcb;" horiz-adv-x="1282" d="M0 -2l178 307h373q-16 47 -16 82l2 277q0 63 45 108t108 45h271q111 0 215 47q133 59 133 156l2 -510h-469v-104q0 -49 96 -78q70 -23 129 -23h553v-307h-1016q-53 0 -91 -37t-38 -90q0 -51 38 -87t91 -36h719v-158q0 -63 -45 -108t-109 -45h-565q-180 0 -308 128 t-128 306q0 66 20 127h-188z" />
<glyph unicode="&#xcc;" horiz-adv-x="1034" d="M0 -2l178 307h197v666q127 0 217 -90t90 -217v-445q-4 -88 49 -153q55 -72 143 -72q129 0 191 160q43 115 43 270q141 -41 141 -289q0 -186 -110.5 -313t-294.5 -127q-147 0 -260 82t-166 221h-418zM289 1511v160l571 -315v-154z" />
<glyph unicode="&#xcd;" horiz-adv-x="1034" d="M0 -2l178 307h197v666q127 0 217 -90t90 -217v-445q-4 -88 49 -153q55 -72 143 -72q129 0 191 160q43 115 43 270q141 -41 141 -289q0 -186 -110.5 -313t-294.5 -127q-147 0 -260 82t-166 221h-418zM289 1202v154l571 315v-160z" />
<glyph unicode="&#xce;" horiz-adv-x="1034" d="M0 -2l178 307h197v666q127 0 217 -90t90 -217v-445q-4 -88 49 -153q55 -72 143 -72q129 0 191 160q43 115 43 270q141 -41 141 -289q0 -186 -110.5 -313t-294.5 -127q-147 0 -260 82t-166 221h-418zM295 1229v186l287 287l284 -287v-186l-284 282z" />
<glyph unicode="&#xcf;" horiz-adv-x="1034" d="M0 -2l178 307h197v666q127 0 217 -90t90 -217v-445q-4 -88 49 -153q55 -72 143 -72q129 0 191 160q43 115 43 270q141 -41 141 -289q0 -186 -110.5 -313t-294.5 -127q-147 0 -260 82t-166 221h-418z" />
<glyph unicode="&#xd0;" horiz-adv-x="1521" d="M0 -2l178 307h219l-2 361q0 63 46 107t108 44h704q-33 88 -123 178l-260 262l-106 -106l-109 109l107 108l-283 283q90 90 217 90q129 0 217 -90v-2l66 -66l111 111l108 -109l-111 -110l263 -263q223 -221 223 -448l2 -610q0 -63 -45 -109.5t-109 -46.5h-1421zM705 305 h563v205h-561z" />
<glyph unicode="&#xd1;" horiz-adv-x="1368" d="M0 -2l178 307h168v445l307 176v-242q92 133 254 133h307q63 0 108.5 -45t45.5 -108v-666h-309v512h-406v-512h-653zM471 1313v160q150 68 242 73q45 4 139.5 -40t135.5 -42q57 4 264 84v-153q-223 -94 -264 -95q-23 0 -68 19q-80 31 -86 33q-96 33 -147 26 q-123 -12 -216 -65z" />
<glyph unicode="&#xd2;" horiz-adv-x="1355" d="M0 -2l178 307h230q55 246 342 375q78 37 125 118t47 171q0 -88 46 -170t122 -117q360 -166 360 -502q0 -217 -154.5 -371.5t-373.5 -154.5q-168 0 -303.5 96t-192.5 248h-426zM627 1511v160l571 -315v-154zM700 180q0 -90 65.5 -154.5t156.5 -64.5q92 0 156.5 64.5 t64.5 154.5q0 92 -64.5 156.5t-156.5 64.5q-90 0 -156 -64.5t-66 -156.5z" />
<glyph unicode="&#xd3;" horiz-adv-x="1355" d="M0 -2l178 307h230q55 246 342 375q78 37 125 118t47 171q0 -88 46 -170t122 -117q360 -166 360 -502q0 -217 -154.5 -371.5t-373.5 -154.5q-168 0 -303.5 96t-192.5 248h-426zM627 1202v154l571 315v-160zM700 180q0 -90 65.5 -154.5t156.5 -64.5q92 0 156.5 64.5 t64.5 154.5q0 92 -64.5 156.5t-156.5 64.5q-90 0 -156 -64.5t-66 -156.5z" />
<glyph unicode="&#xd4;" horiz-adv-x="1355" d="M0 -2l178 307h230q55 246 342 375q78 37 125 118t47 171q0 -88 46 -170t122 -117q360 -166 360 -502q0 -217 -154.5 -371.5t-373.5 -154.5q-168 0 -303.5 96t-192.5 248h-426zM633 1229v186l287 287l284 -287v-186l-284 282zM700 180q0 -90 65.5 -154.5t156.5 -64.5 q92 0 156.5 64.5t64.5 154.5q0 92 -64.5 156.5t-156.5 64.5q-90 0 -156 -64.5t-66 -156.5z" />
<glyph unicode="&#xd5;" horiz-adv-x="1355" d="M0 -2l178 307h230q55 246 342 375q78 37 125 118t47 171q0 -88 46 -170t122 -117q360 -166 360 -502q0 -217 -154.5 -371.5t-373.5 -154.5q-168 0 -303.5 96t-192.5 248h-426zM532 1313v160q150 68 242 73q45 4 139.5 -40t135.5 -42q57 4 264 84v-153q-223 -94 -264 -95 q-23 0 -68 19q-80 31 -86 33q-96 33 -147 26q-123 -12 -216 -65zM700 180q0 -90 65.5 -154.5t156.5 -64.5q92 0 156.5 64.5t64.5 154.5q0 92 -64.5 156.5t-156.5 64.5q-90 0 -156 -64.5t-66 -156.5z" />
<glyph unicode="&#xd6;" horiz-adv-x="1355" d="M0 -2l178 307h230q55 246 342 375q78 37 125 118t47 171q0 -88 46 -170t122 -117q360 -166 360 -502q0 -217 -154.5 -371.5t-373.5 -154.5q-168 0 -303.5 96t-192.5 248h-426zM545 1450q0 63 44 108.5t109 45.5q63 0 108.5 -45.5t45.5 -108.5t-45 -108.5t-109 -45.5 q-66 0 -109.5 45t-43.5 109zM700 180q0 -90 65.5 -154.5t156.5 -64.5q92 0 156.5 64.5t64.5 154.5q0 92 -64.5 156.5t-156.5 64.5q-90 0 -156 -64.5t-66 -156.5zM983 1450q0 63 45 108.5t109 45.5q63 0 108 -45.5t45 -108.5t-45 -108.5t-108 -45.5t-108.5 45t-45.5 109z" />
<glyph unicode="&#xd8;" horiz-adv-x="1355" d="M0 -2l178 307h230q31 135 124 230q74 74 218 145q172 88 172 289q2 -201 168 -287q182 -94 262 -195q98 -121 98 -307q0 -217 -155.5 -371.5t-372.5 -154.5q-164 0 -301.5 95t-194.5 249h-426zM700 180q0 -29 9 -57l272 270q-29 8 -59 8q-90 0 -156 -64.5t-66 -156.5z M877 -35q23 -4 45 -4q90 0 155.5 64.5t65.5 154.5q0 25 -4 45z" />
<glyph unicode="&#xd9;" horiz-adv-x="1388" d="M0 -2l178 307h201v213q2 123 92 211t213 88l2 -510h395v203q0 127 90.5 217t217.5 90v-667q0 -63 -45.5 -108.5t-108.5 -45.5zM627 1511v160l571 -315v-154z" />
<glyph unicode="&#xda;" horiz-adv-x="1388" d="M0 -2l178 307h201v213q2 123 92 211t213 88l2 -510h395v203q0 127 90.5 217t217.5 90v-667q0 -63 -45.5 -108.5t-108.5 -45.5zM596 1202v154l571 315v-160z" />
<glyph unicode="&#xdb;" horiz-adv-x="1388" d="M0 -2l178 307h201v213q2 123 92 211t213 88l2 -510h395v203q0 127 90.5 217t217.5 90v-667q0 -63 -45.5 -108.5t-108.5 -45.5zM602 1229v186l287 287l284 -287v-186l-284 282z" />
<glyph unicode="&#xdc;" horiz-adv-x="1388" d="M0 -2l178 307h201v213q2 123 92 211t213 88l2 -510h395v203q0 127 90.5 217t217.5 90v-667q0 -63 -45.5 -108.5t-108.5 -45.5zM545 1450q0 63 44 108.5t109 45.5q63 0 108.5 -45.5t45.5 -108.5t-45 -108.5t-109 -45.5q-66 0 -109.5 45t-43.5 109zM983 1450q0 63 45 108.5 t109 45.5q63 0 108 -45.5t45 -108.5t-45 -108.5t-108 -45.5t-108.5 45t-45.5 109z" />
<glyph unicode="&#xdd;" horiz-adv-x="1419" d="M0 0l178 305h234q-2 213 0 213q2 125 92 212t215 87v-512h393v211q2 125 92 213t215 88q0 12 4 -481q2 -297 -4 -475t-131 -305t-305 -127t-307 127t-127 307h307q0 -53 37 -90t90 -37t91 37t38 90v137h-1112zM627 1202v154l571 315v-160z" />
<glyph unicode="&#xde;" horiz-adv-x="1349" d="M0 -2l178 307h228l2 1145h307v-530h442q106 0 182 -79.5t76 -185.5t-75.5 -184t-182.5 -78h-444v-395h-713zM715 586h442q27 0 47.5 20t20.5 49q0 27 -20.5 49.5t-47.5 22.5h-442v-141z" />
<glyph unicode="&#xe0;" horiz-adv-x="1376" d="M0 -2l178 307h195q25 205 137 348q131 164 324 164h137q127 0 248 43q162 57 161 162v-717h334v-307h-1714zM627 1511v160l571 -315v-154zM684 305h393v103q-2 66 -2 102h-237q-61 0 -107 -76q-35 -57 -47 -129z" />
<glyph unicode="&#xe1;" horiz-adv-x="1376" d="M0 -2l178 307h195q25 205 137 348q131 164 324 164h137q127 0 248 43q162 57 161 162v-717h334v-307h-1714zM627 1202v154l571 315v-160zM684 305h393v103q-2 66 -2 102h-237q-61 0 -107 -76q-35 -57 -47 -129z" />
<glyph unicode="&#xe2;" horiz-adv-x="1376" d="M0 -2l178 307h195q25 205 137 348q131 164 324 164h137q127 0 248 43q162 57 161 162v-717h334v-307h-1714zM633 1229v186l287 287l284 -287v-186l-284 282zM684 305h393v103q-2 66 -2 102h-237q-61 0 -107 -76q-35 -57 -47 -129z" />
<glyph unicode="&#xe3;" horiz-adv-x="1376" d="M0 -2l178 307h195q25 205 137 348q131 164 324 164h137q127 0 248 43q162 57 161 162v-717h334v-307h-1714zM532 1313v160q150 68 242 73q45 4 139.5 -40t135.5 -42q57 4 264 84v-153q-223 -94 -264 -95q-23 0 -68 19q-80 31 -86 33q-96 33 -147 26q-123 -12 -216 -65z M684 305h393v103q-2 66 -2 102h-237q-61 0 -107 -76q-35 -57 -47 -129z" />
<glyph unicode="&#xe4;" horiz-adv-x="1376" d="M0 -2l178 307h195q25 205 137 348q131 164 324 164h137q127 0 248 43q162 57 161 162v-717h334v-307h-1714zM545 1450q0 63 44 108.5t109 45.5q63 0 108.5 -45.5t45.5 -108.5t-45 -108.5t-109 -45.5q-66 0 -109.5 45t-43.5 109zM684 305h393v103q-2 66 -2 102h-237 q-61 0 -107 -76q-35 -57 -47 -129zM983 1450q0 63 45 108.5t109 45.5q63 0 108 -45.5t45 -108.5t-45 -108.5t-108 -45.5t-108.5 45t-45.5 109z" />
<glyph unicode="&#xe5;" horiz-adv-x="1376" d="M0 -2l178 307h195q25 205 137 348q131 164 324 164h137q127 0 248 43q162 57 161 162v-717h334v-307h-1714zM684 305h393v103q-2 66 -2 102h-237q-61 0 -107 -76q-35 -57 -47 -129zM713 1427q0 88 63.5 151.5t151.5 63.5q90 0 152.5 -63.5t62.5 -151.5 q0 -90 -62.5 -152.5t-152.5 -62.5q-88 0 -151.5 62.5t-63.5 152.5zM844 1427q0 -35 24.5 -59.5t59.5 -24.5t60.5 24.5t25.5 59.5t-25.5 59.5t-60.5 24.5t-59.5 -24.5t-24.5 -59.5z" />
<glyph unicode="&#xe6;" horiz-adv-x="1859" d="M0 -2l178 307h256q25 205 137 348q131 164 324 164h145q127 0 248 43q162 57 162 162v-205h467v-307h-467v-104q0 -10 16 -31q55 -70 209 -70h523v-307h-986q-53 0 -91 -37t-38 -90q0 -51 38 -89t91 -38h717v-154q0 -63 -45 -108t-108 -45h-564q-180 0 -308 128t-128 306 q0 66 19 127h-795zM745 305h396l4 205h-240q-66 0 -112 -72q-35 -57 -48 -133z" />
<glyph unicode="&#xe7;" horiz-adv-x="1189" d="M369 664q0 158 231 157q27 0 72 -2t61 -2q127 0 248 43q162 57 162 162v-512h-467v-104q0 -49 96 -78q70 -23 129 -23h627v-307h-627q-188 0 -342 90q-178 102 -188 279q-2 20 -2 297zM713 1366q0 63 45 108.5t108 45.5t108.5 -45.5t45.5 -108.5t-45 -108.5t-109 -45.5 q-63 0 -108 45.5t-45 108.5zM739 174l308 2l-3 -340q-4 -125 -92 -213t-213 -88v639z" />
<glyph unicode="&#xe8;" horiz-adv-x="1282" d="M0 -2l178 307h373q-16 47 -16 82l2 277q0 63 45 108t108 45h271q111 0 215 47q133 59 133 156l2 -510h-469v-104q0 -49 96 -78q70 -23 129 -23h553v-307h-1016q-53 0 -91 -37t-38 -90q0 -51 38 -87t91 -36h719v-158q0 -63 -45 -108t-109 -45h-565q-180 0 -308 128 t-128 306q0 66 20 127h-188zM627 1511v160l571 -315v-154z" />
<glyph unicode="&#xe9;" horiz-adv-x="1282" d="M0 -2l178 307h373q-16 47 -16 82l2 277q0 63 45 108t108 45h271q111 0 215 47q133 59 133 156l2 -510h-469v-104q0 -49 96 -78q70 -23 129 -23h553v-307h-1016q-53 0 -91 -37t-38 -90q0 -51 38 -87t91 -36h719v-158q0 -63 -45 -108t-109 -45h-565q-180 0 -308 128 t-128 306q0 66 20 127h-188zM627 1202v154l571 315v-160z" />
<glyph unicode="&#xea;" horiz-adv-x="1282" d="M0 -2l178 307h373q-16 47 -16 82l2 277q0 63 45 108t108 45h271q111 0 215 47q133 59 133 156l2 -510h-469v-104q0 -49 96 -78q70 -23 129 -23h553v-307h-1016q-53 0 -91 -37t-38 -90q0 -51 38 -87t91 -36h719v-158q0 -63 -45 -108t-109 -45h-565q-180 0 -308 128 t-128 306q0 66 20 127h-188zM633 1229v186l287 287l284 -287v-186l-284 282z" />
<glyph unicode="&#xeb;" horiz-adv-x="1282" d="M0 -2l178 307h373q-16 47 -16 82l2 277q0 63 45 108t108 45h271q111 0 215 47q133 59 133 156l2 -510h-469v-104q0 -49 96 -78q70 -23 129 -23h553v-307h-1016q-53 0 -91 -37t-38 -90q0 -51 38 -87t91 -36h719v-158q0 -63 -45 -108t-109 -45h-565q-180 0 -308 128 t-128 306q0 66 20 127h-188z" />
<glyph unicode="&#xec;" horiz-adv-x="1034" d="M0 -2l178 307h197v666q127 0 217 -90t90 -217v-445q-4 -88 49 -153q55 -72 143 -72q129 0 191 160q43 115 43 270q141 -41 141 -289q0 -186 -110.5 -313t-294.5 -127q-147 0 -260 82t-166 221h-418zM289 1511v160l571 -315v-154z" />
<glyph unicode="&#xed;" horiz-adv-x="1034" d="M0 -2l178 307h197v666q127 0 217 -90t90 -217v-445q-4 -88 49 -153q55 -72 143 -72q129 0 191 160q43 115 43 270q141 -41 141 -289q0 -186 -110.5 -313t-294.5 -127q-147 0 -260 82t-166 221h-418zM289 1202v154l571 315v-160z" />
<glyph unicode="&#xee;" horiz-adv-x="1034" d="M0 -2l178 307h197v666q127 0 217 -90t90 -217v-445q-4 -88 49 -153q55 -72 143 -72q129 0 191 160q43 115 43 270q141 -41 141 -289q0 -186 -110.5 -313t-294.5 -127q-147 0 -260 82t-166 221h-418zM295 1229v186l287 287l284 -287v-186l-284 282z" />
<glyph unicode="&#xef;" horiz-adv-x="1034" d="M0 -2l178 307h197v666q127 0 217 -90t90 -217v-445q-4 -88 49 -153q55 -72 143 -72q129 0 191 160q43 115 43 270q141 -41 141 -289q0 -186 -110.5 -313t-294.5 -127q-147 0 -260 82t-166 221h-418z" />
<glyph unicode="&#xf0;" horiz-adv-x="1521" d="M0 -2l178 307h219l-2 361q0 63 46 107t108 44h704q-33 88 -123 178l-260 262l-106 -106l-109 109l107 108l-283 283q90 90 217 90q129 0 217 -90v-2l66 -66l111 111l108 -109l-111 -110l263 -263q223 -221 223 -448l2 -459h283l2 -307h-1860zM705 305h563v205h-561z" />
<glyph unicode="&#xf1;" horiz-adv-x="1374" d="M0 -2l178 307h168v445l307 176v-242q92 133 254 133h307q63 0 108.5 -45t45.5 -108v-359h344l-2 -307h-651v512h-406v-512h-653zM471 1313v160q150 68 242 73q45 4 139.5 -40t135.5 -42q57 4 264 84v-153q-223 -94 -264 -95q-23 0 -68 19q-80 31 -86 33q-96 33 -147 26 q-123 -12 -216 -65z" />
<glyph unicode="&#xf2;" horiz-adv-x="1386" d="M0 -2l178 307h230q55 246 342 375q78 37 125 118t47 171q0 -88 46 -170t122 -117q293 -135 348 -377h286v-307h-307q-57 -152 -192 -248t-303 -96t-303.5 96t-192.5 248h-426zM627 1511v160l571 -315v-154zM700 180q0 -90 65.5 -154.5t156.5 -64.5q92 0 156.5 64.5 t64.5 154.5q0 92 -64.5 156.5t-156.5 64.5q-90 0 -156 -64.5t-66 -156.5z" />
<glyph unicode="&#xf3;" horiz-adv-x="1386" d="M0 -2l178 307h230q55 246 342 375q78 37 125 118t47 171q0 -88 46 -170t122 -117q293 -135 348 -377h286v-307h-307q-57 -152 -192 -248t-303 -96t-303.5 96t-192.5 248h-426zM627 1202v154l571 315v-160zM700 180q0 -90 65.5 -154.5t156.5 -64.5q92 0 156.5 64.5 t64.5 154.5q0 92 -64.5 156.5t-156.5 64.5q-90 0 -156 -64.5t-66 -156.5z" />
<glyph unicode="&#xf4;" horiz-adv-x="1386" d="M0 -2l178 307h230q55 246 342 375q78 37 125 118t47 171q0 -88 46 -170t122 -117q293 -135 348 -377h286v-307h-307q-57 -152 -192 -248t-303 -96t-303.5 96t-192.5 248h-426zM633 1229v186l287 287l284 -287v-186l-284 282zM700 180q0 -90 65.5 -154.5t156.5 -64.5 q92 0 156.5 64.5t64.5 154.5q0 92 -64.5 156.5t-156.5 64.5q-90 0 -156 -64.5t-66 -156.5z" />
<glyph unicode="&#xf5;" horiz-adv-x="1386" d="M0 -2l178 307h230q55 246 342 375q78 37 125 118t47 171q0 -88 46 -170t122 -117q293 -135 348 -377h286v-307h-307q-57 -152 -192 -248t-303 -96t-303.5 96t-192.5 248h-426zM700 180q0 -90 65.5 -154.5t156.5 -64.5q92 0 156.5 64.5t64.5 154.5q0 92 -64.5 156.5 t-156.5 64.5q-90 0 -156 -64.5t-66 -156.5z" />
<glyph unicode="&#xf6;" horiz-adv-x="1386" d="M0 -2l178 307h230q55 246 342 375q78 37 125 118t47 171q0 -88 46 -170t122 -117q293 -135 348 -377h286v-307h-307q-57 -152 -192 -248t-303 -96t-303.5 96t-192.5 248h-426zM700 180q0 -90 65.5 -154.5t156.5 -64.5q92 0 156.5 64.5t64.5 154.5q0 92 -64.5 156.5 t-156.5 64.5q-90 0 -156 -64.5t-66 -156.5z" />
<glyph unicode="&#xf8;" horiz-adv-x="1386" d="M0 -2l178 307h230q55 246 342 375q78 37 125 118t47 171q0 -88 46 -170t122 -117q293 -135 348 -377h286v-307h-307q-57 -152 -192 -248t-303 -96t-303.5 96t-192.5 248h-426zM700 180q0 -29 9 -57l272 270q-29 8 -59 8q-90 0 -156 -64.5t-66 -156.5zM877 -35 q23 -4 45 -4q90 0 155.5 64.5t65.5 154.5q0 25 -4 45z" />
<glyph unicode="&#xf9;" horiz-adv-x="1396" d="M354 307v203q-2 127 88 217t220 90v-510h395v209q0 125 91 213t216 88q0 -299 2 -512h367l-2 -307l-1069 2q-127 0 -216.5 90t-91.5 217zM627 1511v160l571 -315v-154z" />
<glyph unicode="&#xfa;" horiz-adv-x="1396" d="M354 307v203q-2 127 88 217t220 90v-510h395v209q0 125 91 213t216 88q0 -299 2 -512h367l-2 -307l-1069 2q-127 0 -216.5 90t-91.5 217zM596 1202v154l571 315v-160z" />
<glyph unicode="&#xfb;" horiz-adv-x="1396" d="M354 307v203q-2 127 88 217t220 90v-510h395v209q0 125 91 213t216 88q0 -299 2 -512h367l-2 -307l-1069 2q-127 0 -216.5 90t-91.5 217zM602 1229v186l287 287l284 -287v-186l-284 282z" />
<glyph unicode="&#xfc;" horiz-adv-x="1396" d="M354 307v203q-2 127 88 217t220 90v-510h395v209q0 125 91 213t216 88q0 -299 2 -512h367l-2 -307l-1069 2q-127 0 -216.5 90t-91.5 217zM545 1450q0 63 44 108.5t109 45.5q63 0 108.5 -45.5t45.5 -108.5t-45 -108.5t-109 -45.5q-66 0 -109.5 45t-43.5 109zM983 1450 q0 63 45 108.5t109 45.5q63 0 108 -45.5t45 -108.5t-45 -108.5t-108 -45.5t-108.5 45t-45.5 109z" />
<glyph unicode="&#xfd;" horiz-adv-x="1419" d="M0 0l178 305h234q-2 213 0 213q2 125 92 212t215 87v-512h393v211q2 125 92 213t215 88q0 12 4 -481q2 -297 -4 -475t-131 -305t-305 -127t-307 127t-127 307h307q0 -53 37 -90t90 -37t91 37t38 90v137h-1112zM627 1202v154l571 315v-160z" />
<glyph unicode="&#xfe;" horiz-adv-x="1349" d="M0 -2l178 307h228l2 1145h307v-530h442q106 0 182 -79t76 -186q0 -106 -75.5 -184t-182.5 -78h-444v-88h934l-2 -307h-1645zM715 586h442q27 0 47.5 20t20.5 49q0 27 -20.5 49.5t-47.5 22.5h-442v-141z" />
<glyph unicode="&#xff;" horiz-adv-x="1419" d="M0 0l178 305h234q-2 213 0 213q2 125 92 212t215 87v-512h393v211q2 125 92 213t215 88q0 12 4 -481q2 -297 -4 -475t-131 -305t-305 -127t-307 127t-127 307h307q0 -53 37 -90t90 -37t91 37t38 90v137h-1112z" />
<glyph unicode="&#x152;" horiz-adv-x="1855" d="M0 -2l178 307h217l-2 29q-4 170 96 305q96 129 261 195q80 33 127 118q45 80 45 170q0 -86 45 -168q49 -88 123 -118q37 -14 108 -52q41 33 96 33h621v-307h-467v-104q0 -10 16 -31q53 -70 217 -70h512v-307h-985q-51 0 -89 -37t-38 -90q0 -51 38 -89t89 -38h719v-154 q0 -63 -45 -108t-108 -45h-566q-166 0 -290.5 112.5t-141.5 278.5q-158 45 -262 170h-514zM700 334q0 -90 65.5 -154.5t156.5 -64.5q92 0 156.5 64.5t64.5 154.5q0 92 -64.5 156.5t-156.5 64.5q-90 0 -156 -64.5t-66 -156.5z" />
<glyph unicode="&#x153;" horiz-adv-x="1855" d="M0 -2l178 307h217l-2 29q-4 170 96 305q96 129 261 195q80 33 127 118q45 80 45 170q0 -86 45 -168q49 -88 123 -118q37 -14 108 -52q41 33 96 33h621v-307h-467v-104q0 -10 16 -31q53 -70 217 -70h512v-307h-985q-51 0 -89 -37t-38 -90q0 -51 38 -89t89 -38h719v-154 q0 -63 -45 -108t-108 -45h-566q-166 0 -290.5 112.5t-141.5 278.5q-158 45 -262 170h-514zM700 334q0 -90 65.5 -154.5t156.5 -64.5q92 0 156.5 64.5t64.5 154.5q0 92 -64.5 156.5t-156.5 64.5q-90 0 -156 -64.5t-66 -156.5z" />
<glyph unicode="&#x178;" horiz-adv-x="1419" d="M0 0l178 305h234q-2 213 0 213q2 125 92 212t215 87v-512h393v211q2 125 92 213t215 88q0 12 4 -481q2 -297 -4 -475t-131 -305t-305 -127t-307 127t-127 307h307q0 -53 37 -90t90 -37t91 37t38 90v137h-1112z" />
<glyph unicode="&#x2c6;" horiz-adv-x="1376" d="M633 1229v186l287 287l284 -287v-186l-284 282z" />
<glyph unicode="&#x2dc;" horiz-adv-x="1376" d="M532 1313v160q150 68 242 73q45 4 139.5 -40t135.5 -42q57 4 264 84v-153q-223 -94 -264 -95q-23 0 -68 19q-80 31 -86 33q-96 33 -147 26q-123 -12 -216 -65z" />
<glyph unicode="&#x2000;" horiz-adv-x="1101" />
<glyph unicode="&#x2001;" horiz-adv-x="2202" />
<glyph unicode="&#x2002;" horiz-adv-x="1101" />
<glyph unicode="&#x2003;" horiz-adv-x="2202" />
<glyph unicode="&#x2004;" horiz-adv-x="734" />
<glyph unicode="&#x2005;" horiz-adv-x="550" />
<glyph unicode="&#x2006;" horiz-adv-x="367" />
<glyph unicode="&#x2007;" horiz-adv-x="367" />
<glyph unicode="&#x2008;" horiz-adv-x="275" />
<glyph unicode="&#x2009;" horiz-adv-x="440" />
<glyph unicode="&#x200a;" horiz-adv-x="122" />
<glyph unicode="&#x2010;" horiz-adv-x="745" d="M307 510l178 307h414l-178 -307h-414z" />
<glyph unicode="&#x2011;" horiz-adv-x="745" d="M307 510l178 307h414l-178 -307h-414z" />
<glyph unicode="&#x2012;" horiz-adv-x="745" d="M307 510l178 307h414l-178 -307h-414z" />
<glyph unicode="&#x2013;" d="M104 715v260h1020v-260h-1020z" />
<glyph unicode="&#x2014;" horiz-adv-x="1843" d="M104 715v260h1635v-260h-1635z" />
<glyph unicode="&#x2018;" horiz-adv-x="802" d="M373 1761q0 168 133 289q115 102 293 152v-191q-119 -35 -168 -90q172 -27 172 -197q0 -90 -57.5 -153.5t-147.5 -63.5q-102 0 -166 78q-59 72 -59 176z" />
<glyph unicode="&#x2019;" horiz-adv-x="972" d="M373 1985q0 90 57 153.5t148 63.5q102 0 163.5 -74t61.5 -178q0 -168 -133 -291q-113 -102 -291 -150v191q117 33 168 88q-174 29 -174 197z" />
<glyph unicode="&#x201a;" horiz-adv-x="737" d="M328 188q0 90 58 154t146 64q102 0 165 -75t63 -177q0 -168 -135 -291q-113 -102 -291 -152v193q119 33 168 88q-174 27 -174 196z" />
<glyph unicode="&#x201c;" horiz-adv-x="1454" d="M373 1761q0 168 133 289q115 102 293 152v-191q-119 -35 -168 -90q172 -27 172 -197q0 -90 -57.5 -153.5t-147.5 -63.5q-102 0 -166 78q-59 72 -59 176zM1024 1761q0 168 133 289q115 102 293 152v-191q-119 -35 -168 -90q172 -27 172 -197q0 -90 -57.5 -153.5 t-147.5 -63.5q-102 0 -166 78q-59 72 -59 176z" />
<glyph unicode="&#x201d;" horiz-adv-x="1622" d="M373 1985q0 90 57 153.5t148 63.5q100 0 165 -76q60 -72 60 -176q0 -168 -135 -291q-113 -102 -291 -150v191q119 33 168 88q-172 29 -172 197zM1024 1985q0 90 57.5 153.5t147.5 63.5q100 0 166 -76q59 -72 59 -176q0 -168 -135 -291q-113 -102 -291 -150v191 q119 33 168 88q-172 29 -172 197z" />
<glyph unicode="&#x201e;" horiz-adv-x="1861" d="M373 188q0 90 57 152.5t148 62.5q102 0 163.5 -73.5t61.5 -177.5q0 -168 -133 -289q-113 -102 -291 -152v191q117 35 168 90q-174 27 -174 196zM1024 188q0 90 57.5 152.5t147.5 62.5q102 0 163.5 -73.5t61.5 -177.5q0 -168 -133 -289q-113 -102 -291 -152v191 q117 35 168 90q-174 27 -174 196z" />
<glyph unicode="&#x2022;" horiz-adv-x="493" d="M25 662v460h153v-460h-153zM25 969v153h460v-153h-460zM178 662q127 0 217 90t90 217h-307v-307zM178 969z" />
<glyph unicode="&#x202f;" horiz-adv-x="440" />
<glyph unicode="&#x2039;" horiz-adv-x="876" d="M154 406l372 372h242l-369 -372l369 -373h-242z" />
<glyph unicode="&#x203a;" horiz-adv-x="675" d="M399 33l369 373l-369 372h242l373 -372l-373 -373h-242z" />
<glyph unicode="&#x205f;" horiz-adv-x="550" />
<glyph unicode="&#x20ac;" horiz-adv-x="1382" d="M0 670l178 307h86v301q0 217 155.5 372.5t373.5 155.5q219 0 373.5 -155.5t154.5 -372.5h-307q0 90 -64.5 155.5t-156.5 65.5q-90 0 -156 -65.5t-66 -155.5v-301h279l-176 -307h-103v-142q0 -90 65.5 -155.5t156.5 -65.5q92 0 156.5 65.5t64.5 155.5h307 q0 -217 -154.5 -372.5t-373.5 -155.5q-217 0 -373 155.5t-156 372.5v142h-264z" />
<glyph unicode="&#x25fc;" horiz-adv-x="798" d="M0 0v799h799v-799h-799z" />
</font>
</defs>
</svg>
